<svg xmlns="http://www.w3.org/2000/svg" viewBox="0 0 140 70"><title>inkOfPixel - Hero</title><line x1="77.92" y1="58.33" x2="21.31" y2="58.33" style="fill:none;stroke:#0e0f1f;stroke-miterlimit:10;stroke-width:4px"/><line x1="85.89" y1="46.37" x2="55.92" y2="46.37" style="fill:none;stroke:#0e0f1f;stroke-miterlimit:10;stroke-width:2px"/><polygon points="112.82 37.12 130.93 39.42 133.02 14.97 109.69 12.02 106.56 28.75 112.82 37.12" style="fill:none;stroke:#0e0f1f;stroke-miterlimit:10;stroke-width:2px"/><polyline points="112.91 35.98 113.81 28.91 107.62 28" style="fill:none;stroke:#0e0f1f;stroke-linecap:square;stroke-miterlimit:10;stroke-width:2px"/><polygon points="98.52 35.02 73.27 35.02 74.27 10.51 97.78 10.51 98.52 35.02" style="fill:none;stroke:#0e0f1f;stroke-miterlimit:10;stroke-width:2px"/><polygon points="59.79 35.51 41.54 35.51 42.54 11 66.05 11 67.05 28 59.79 35.51" style="fill:none;stroke:#0e0f1f;stroke-miterlimit:10;stroke-width:2px"/><polyline points="59.85 34.37 58.85 27.12 66.1 27.12" style="fill:#0e0f1f;stroke:#0e0f1f;stroke-miterlimit:10;stroke-width:2px"/><polygon points="28.28 35.66 10.17 37.95 8.08 13.51 31.41 10.56 34.53 27.29 28.28 35.66" style="fill:none;stroke:#0e0f1f;stroke-miterlimit:10;stroke-width:2px"/><polyline points="28.19 34.52 27.29 27.45 33.48 26.54" style="fill:none;stroke:#0e0f1f;stroke-linecap:square;stroke-miterlimit:10;stroke-width:2px"/></svg>