<svg xmlns="http://www.w3.org/2000/svg" viewBox="0 0 1080 680"><title>inkOfPixel - Hero</title><path d="M772,186.29s-37.46,26.77-66.55,23.28C705.49,209.57,732.11,173.2,772,186.29Z" style="fill:#0e0f1f;stroke:#0e0f1f;stroke-miterlimit:10;stroke-width:2px"/><path d="M774.61,179.89s-30.86,3.49-48.54-14.83C726.07,165.06,757.7,154.85,774.61,179.89Z" style="fill:#0e0f1f;stroke:#0e0f1f;stroke-miterlimit:10;stroke-width:2px"/><path d="M794.06,191.53s1.57,33.17,52.36,47.42C846.42,239,833.17,192.69,794.06,191.53Z" style="fill:#0e0f1f;stroke:#0e0f1f;stroke-miterlimit:10;stroke-width:2px"/><path d="M794.93,183.45s30.71,23.79,67.66,14.19C862.59,197.64,834.34,168.68,794.93,183.45Z" style="fill:#0e0f1f;stroke:#0e0f1f;stroke-miterlimit:10;stroke-width:2px"/><path d="M790.67,174.66s5.59-26.48,44.57-33.46C835.24,141.2,819.71,167.09,790.67,174.66Z" style="fill:#0e0f1f;stroke:#0e0f1f;stroke-miterlimit:10;stroke-width:2px"/><path d="M714.66,199.92s-10-.39-18.12,13.36S686.29,234,686.29,234s29.79-15.52,33.44-24.13" style="fill:none;stroke:#0e0f1f;stroke-miterlimit:10;stroke-width:2px"/><path d="M727.81,190.64s-19.27,4.75-29.3,1.91c0,0,19.23-23.51,44.31-7.72" style="fill:none;stroke:#0e0f1f;stroke-miterlimit:10;stroke-width:2px"/><path d="M765.06,139.09S747,154.18,768.55,163C768.55,163,778.58,140.4,765.06,139.09Z" style="fill:#0e0f1f;stroke:#0e0f1f;stroke-miterlimit:10;stroke-width:2px"/><path d="M758,140s-53.77,17.24-68,30.11C690,170.07,708.73,140.84,758,140Z" style="fill:#0e0f1f;stroke:#0e0f1f;stroke-miterlimit:10;stroke-width:2px"/><path d="M752.4,138s-25.75-.44-34.91,1.09-24.66,4.36-24.66,4.36S719.67,128.18,752.4,138Z" style="fill:#0e0f1f;stroke:#0e0f1f;stroke-miterlimit:10;stroke-width:2px"/><path d="M762.87,133.2s9.82-25.75,29.46-25.09C792.33,108.11,788.55,131.35,762.87,133.2Z" style="fill:#0e0f1f;stroke:#0e0f1f;stroke-miterlimit:10;stroke-width:2px"/><path d="M786,102.87s-43.2,2.62-58.26-9.6C727.74,93.27,757.42,77.12,786,102.87Z" style="fill:none;stroke:#0e0f1f;stroke-miterlimit:10;stroke-width:2px"/><path d="M787.53,93.71s-48.66-37.53-50-58.92C737.56,34.79,774.45,29.38,787.53,93.71Z" style="fill:none;stroke:#0e0f1f;stroke-miterlimit:10;stroke-width:2px"/><path d="M793.2,88.27S765.71,41.56,773.57,5.34C773.57,5.34,814.37,47.05,793.2,88.27Z" style="fill:none;stroke:#0e0f1f;stroke-miterlimit:10;stroke-width:2px"/><path d="M802.71,90.22s7.8-58.92,32.53-68.52C835.24,21.7,839.53,77.58,802.71,90.22Z" style="fill:none;stroke:#0e0f1f;stroke-miterlimit:10;stroke-width:2px"/><path d="M805.2,100.47s17.63-22.26,41.22-13.09C846.42,87.38,839.24,104.83,805.2,100.47Z" style="fill:none;stroke:#0e0f1f;stroke-miterlimit:10;stroke-width:2px"/><path d="M805.2,106.36s7.28,14.4,30,15.49C835.24,121.85,825.5,99.16,805.2,106.36Z" style="fill:none;stroke:#0e0f1f;stroke-miterlimit:10;stroke-width:2px"/><path d="M853.64,101.17s-18.57-43,10.68-62C864.32,39.16,865.86,85.07,853.64,101.17Z" style="fill:#0e0f1f;stroke:#0e0f1f;stroke-miterlimit:10;stroke-width:2px"/><path d="M863.46,101.17s12.66-42.37,55.42-46.74C918.88,54.43,891,91.83,863.46,101.17Z" style="fill:#0e0f1f;stroke:#0e0f1f;stroke-miterlimit:10;stroke-width:2px"/><path d="M857.57,111.16s8.29,10.91,32.18,3.06C889.75,114.22,875.9,98.72,857.57,111.16Z" style="fill:#0e0f1f;stroke:#0e0f1f;stroke-miterlimit:10;stroke-width:2px"/><path d="M832.51,98.51c2.65,6.54,16.55,9.58,16.55,9.58s3.88-16.13-2.64-20.71" style="fill:#0e0f1f;stroke:#0e0f1f;stroke-miterlimit:10;stroke-width:2px"/><path d="M841.36,148.91c34,6,33.25,5.63,53.34,14C894.7,162.91,864.51,137.62,841.36,148.91Z" style="fill:none;stroke:#0e0f1f;stroke-miterlimit:10;stroke-width:2px"/><path d="M843,145s15.46-9.21,27.46-7.9S901.21,146,904.7,151C904.7,151,875.42,135.18,843,145Z" style="fill:none;stroke:#0e0f1f;stroke-miterlimit:10;stroke-width:2px"/><path d="M869.35,146.82s38.4,8.64,53.9,22C923.25,168.77,900.12,144.39,869.35,146.82Z" style="fill:none;stroke:#0e0f1f;stroke-miterlimit:10;stroke-width:2px"/><path d="M857.57,175.53s-26-8.36-31.76-17.6C825.81,157.93,851.68,157.64,857.57,175.53Z" style="fill:none;stroke:#0e0f1f;stroke-miterlimit:10;stroke-width:2px"/><path d="M888.64,157.93s6,18-19.29,17.6c0,0,1.73-18.26,19.29-17.6,19.9.75,39.63,22.23,39.63,22.23-15.5-23.74-57-31.28-57-31.28" style="fill:none;stroke:#0e0f1f;stroke-miterlimit:10;stroke-width:2px"/><path d="M870.66,183.45s33.39,15.86,38.4,25.46,12.66,26.19,12.66,26.19S874.81,196.61,870.66,183.45Z" style="fill:none;stroke:#0e0f1f;stroke-miterlimit:10;stroke-width:2px"/><path d="M858.44,199c-3.27,11.66,5.88,29.13,5.88,29.13,22-17.23.06-40.14.06-40.14s-4.62,2.17-5.28,6.59" style="fill:none;stroke:#0e0f1f;stroke-miterlimit:10;stroke-width:2px"/><path d="M874.13,214.37c1.93,17,18.57,40.8,18.57,40.8,4.4-26.91-4-43.94-12-53.54a44.1,44.1,0,0,0-11.4-10.1,4.76,4.76,0,0,0,0,3.64" style="fill:none;stroke:#0e0f1f;stroke-miterlimit:10;stroke-width:2px"/><path d="M880.75,201.63S901,213,903.83,233.21c0,0-10.42-3.32-11.54-7.61" style="fill:none;stroke:#0e0f1f;stroke-miterlimit:10;stroke-width:2px"/><path d="M849.38,188c9.92-.8,9.43-5.75,9.43-5.75s-11.35-13.29-28.51-2.06" style="fill:none;stroke:#0e0f1f;stroke-miterlimit:10;stroke-width:2px"/><path d="M845.86,199.92s.2,26.23-20.05,36.85c0,0-2.75-31.07,6.91-37.79" style="fill:none;stroke:#0e0f1f;stroke-miterlimit:10;stroke-width:2px"/><path d="M857.91,201.74a36.35,36.35,0,0,0-2.9-2.57" style="fill:none;stroke:#0e0f1f;stroke-miterlimit:10;stroke-width:2px"/><path d="M847.61,199.86s1.42,46.95,16.71,59c0,0,6.87-17.82,4.09-35.54" style="fill:none;stroke:#0e0f1f;stroke-miterlimit:10;stroke-width:2px"/><path d="M828.11,323.79s-2.07,18.88,17.13,26.73C845.24,350.52,845.79,324,828.11,323.79Z" style="fill:none;stroke:#0e0f1f;stroke-miterlimit:10;stroke-width:2px"/><path d="M823.31,324.85s-17.45,12.19-8.83,26.44C814.48,351.29,826.37,330.39,823.31,324.85Z" style="fill:none;stroke:#0e0f1f;stroke-miterlimit:10;stroke-width:2px"/><path d="M819.47,323.36s-15.14,19.78-23.54,20.2C795.93,343.56,800.78,323.68,819.47,323.36Z" style="fill:none;stroke:#0e0f1f;stroke-miterlimit:10;stroke-width:2px"/><path d="M820,319.7s-16.16,7.58-22.1,6.17C797.94,325.87,806.26,314.44,820,319.7Z" style="fill:none;stroke:#0e0f1f;stroke-miterlimit:10;stroke-width:2px"/><path d="M827.65,314.52s.14-16.08,13.34-20.37C841,294.15,836,308.08,827.65,314.52Z" style="fill:none;stroke:#0e0f1f;stroke-miterlimit:10;stroke-width:2px"/><path d="M830.19,320.19S844,309,860.3,323.79C860.3,323.79,841.1,326.85,830.19,320.19Z" style="fill:none;stroke:#0e0f1f;stroke-miterlimit:10;stroke-width:2px"/><path d="M849.82,316.92c3.28-.11,12.22-5.69,12.22-5.69-16.91-7.55-31.85,5.69-31.85,5.69l2.18,1.4" style="fill:none;stroke:#0e0f1f;stroke-miterlimit:10;stroke-width:2px"/><path d="M891.72,256.92s.73.41,1.94,1.14c5,3,17.94,11.28,21.19,18.38,0,0-5.79-11.89-11.57-14.83A78.7,78.7,0,0,0,891.72,256.92Z" style="fill:none;stroke:#0e0f1f;stroke-miterlimit:10;stroke-width:2px"/><path d="M894.31,257.79s13.06.33,16.23,1.42,12.6,9.38,17.29,10.31c0,0-8.1-3.47-16.46-6.64C904.28,260.2,897,257.74,894.31,257.79Z" style="fill:none;stroke:#0e0f1f;stroke-miterlimit:10;stroke-width:2px"/><path d="M913.65,267.77l-2.93-5.13Z" style="fill:none;stroke:#0e0f1f;stroke-miterlimit:10;stroke-width:2px"/><line x1="903.28" y1="259.98" x2="913.65" y2="267.77" style="fill:none;stroke:#0e0f1f;stroke-miterlimit:10;stroke-width:2px"/><path d="M867.81,245.68c3.91-.12,17.76,7.25,17.76,7.25s-7.38-6.16-9.24-6.21S867.81,245.68,867.81,245.68Z" style="fill:none;stroke:#0e0f1f;stroke-miterlimit:10;stroke-width:2px"/><path d="M885.57,253.93c-3.72-7.53.75-3.82-4.82-7.11-1.85-1.09-12.39-4.61-12.39-4.61" style="fill:none;stroke:#0e0f1f;stroke-miterlimit:10;stroke-width:2px"/><line x1="868.36" y1="243.28" x2="874.62" y2="246.57" style="fill:none;stroke:#0e0f1f;stroke-miterlimit:10;stroke-width:2px"/><path d="M824.55,275.75s1-9.09-2.69-12-5.76-2.82-5.76-2.82l-.88,3.21S819.9,273,824.55,275.75Z" style="fill:#0e0f1f;stroke:#0e0f1f;stroke-miterlimit:10;stroke-width:2px"/><path d="M839.17,264c-15.78-.73-11.06,11.35-11.06,11.35s6.7,1,9.9-2.62S839.17,264,839.17,264Z" style="fill:#0e0f1f;stroke:#0e0f1f;stroke-miterlimit:10;stroke-width:2px"/><path d="M832.84,279.32s14.55-7.42,24.44-4.58S877,281.06,877,281.06Z" style="fill:#0e0f1f;stroke:#0e0f1f;stroke-miterlimit:10;stroke-width:2px"/><path d="M832.48,283.61s22,.51,33.31,10.84,12,13.74,12,13.74Z" style="fill:none;stroke:#0e0f1f;stroke-miterlimit:10;stroke-width:2px"/><path d="M858.65,297.81l2.63,3.84s-7.86-1.75-9.89-2.4-21.2-15.64-21.2-15.64l-4.05-6" style="fill:#0e0f1f;stroke:#0e0f1f;stroke-miterlimit:10;stroke-width:2px"/><path d="M828.26,309.78s-6.47-17.66-2.11-25.81c0,0,8.58,6.43,8.58,13.76" style="fill:#0e0f1f;stroke:#0e0f1f;stroke-miterlimit:10;stroke-width:2px"/><path d="M887.24,302.37s-10.83,3.13-8.65,15.28C878.59,317.65,891,307.46,887.24,302.37Z" style="fill:#0e0f1f;stroke:#0e0f1f;stroke-miterlimit:10;stroke-width:2px"/><path d="M891,302.81s-6.25,10.62,6.48,20.07C897.43,322.88,900.12,306.16,891,302.81Z" style="fill:#0e0f1f;stroke:#0e0f1f;stroke-miterlimit:10;stroke-width:2px"/><path d="M895.1,301.14s11.35,10,26.91,9.67C922,310.81,915.1,294.59,895.1,301.14Z" style="fill:#0e0f1f;stroke:#0e0f1f;stroke-miterlimit:10;stroke-width:2px"/><path d="M900.25,299.89l-3.11-1.59s16.07-11.85,34.47-1.38c0,0-7.83,5.15-21.08,3.67" style="fill:#0e0f1f;stroke:#0e0f1f;stroke-miterlimit:10;stroke-width:2px"/><path d="M894.31,295.39s3.48-16.29,24.35-16.87C918.66,278.52,910.18,293.86,894.31,295.39Z" style="fill:#0e0f1f;stroke:#0e0f1f;stroke-miterlimit:10;stroke-width:2px"/><path d="M894.31,294.15l-3.79,1.75s-1.38-11.42,2.76-13.45,5.09-3.5,5.09-3.5,1.53,4.36.8,7.63" style="fill:#0e0f1f;stroke:#0e0f1f;stroke-miterlimit:10;stroke-width:2px"/><path d="M886.81,295.9s-10.91-5-11.71-13.45C875.1,282.45,888.48,285.21,886.81,295.9Z" style="fill:#0e0f1f;stroke:#0e0f1f;stroke-miterlimit:10;stroke-width:2px"/><path d="M879.75,319.54s-15.56,4.22-12.36,32.58C867.39,352.12,890.08,343.25,879.75,319.54Z" style="fill:none;stroke:#0e0f1f;stroke-miterlimit:10;stroke-width:2px"/><path d="M885.57,319.54s8.44,13.13,10,17.62,3.27,13.94,7.67,17.43c0,0,2.58-11.66,0-16.52S885.57,319.54,885.57,319.54Z" style="fill:none;stroke:#0e0f1f;stroke-miterlimit:10;stroke-width:2px"/><path d="M897.8,320.3s6.1,4,11.63,7.24,10.91,17.31,10.91,17.31-4.37-3.64-10.33-9-20.59-17.51-20.59-17.51h3.26" style="fill:none;stroke:#0e0f1f;stroke-miterlimit:10;stroke-width:2px"/><path d="M887.46,313.94l3.78,2.18Z" style="fill:none;stroke:#0e0f1f;stroke-miterlimit:10;stroke-width:2px"/><polyline points="889.79 312.38 887.46 313.94 883.77 312.58" style="fill:none;stroke:#0e0f1f;stroke-miterlimit:10;stroke-width:2px"/><path d="M897.32,312s7.53,1.81,15.24,9.23c0,0-11-1-14.76-2.89" style="fill:none;stroke:#0e0f1f;stroke-miterlimit:10;stroke-width:2px"/><path d="M875.39,310.82s-12.58-17.1-36.73-8.45C838.66,302.37,852.41,312.79,875.39,310.82Z" style="fill:none;stroke:#0e0f1f;stroke-miterlimit:10;stroke-width:2px"/><path d="M878.74,308.19s-3.79-21.74-18-24.87c0,0,8.25,13.12,12.32,18.33" style="fill:none;stroke:#0e0f1f;stroke-miterlimit:10;stroke-width:2px"/><path d="M852.77,114.11s-7.23,12.22,6,21.49C858.81,135.6,865.43,117.38,852.77,114.11Z" style="fill:#0e0f1f;stroke:#0e0f1f;stroke-miterlimit:10;stroke-width:2px"/><path d="M862.59,98.51s1.09-31.21,24-46,30.33-17.79,30.33-17.79L898.38,60.13" style="fill:#0e0f1f;stroke:#0e0f1f;stroke-miterlimit:10;stroke-width:2px"/><path d="M853.64,101.17c.66,5.94-2.84,8.46-2.84,8.46s10.48-6.21,11.79-11.12" style="fill:none;stroke:#0e0f1f;stroke-linejoin:round;stroke-width:2px"/><path d="M863.46,101.17c-4.25,5-12.66,8.46-12.66,8.46a29.62,29.62,0,0,0,6.77,1.53" style="fill:none;stroke:#0e0f1f;stroke-linejoin:round;stroke-width:2px"/><polyline points="852.77 114.11 850.8 109.64 849.06 108.09" style="fill:none;stroke:#0e0f1f;stroke-linejoin:round;stroke-width:2px"/><path d="M850.8,109.63s-31.52,18.33-41,69.62" style="fill:none;stroke:#0e0f1f;stroke-linejoin:round;stroke-width:2px"/><path d="M814.73,179.25s14.27-28.59,26.63-30.34" style="fill:none;stroke:#0e0f1f;stroke-miterlimit:10;stroke-width:2px"/><path d="M836.72,150.68s-1.48-3.4,4.64-4.86" style="fill:none;stroke:#0e0f1f;stroke-miterlimit:10;stroke-width:2px"/><polyline points="857.57 175.53 866.63 179.25 869.35 175.53 866.63 179.25 870.66 183.45 866.63 179.25 869.35 191.53" style="fill:none;stroke:#0e0f1f;stroke-linejoin:round;stroke-width:2px"/><path d="M866.63,179.25,864.38,188Z" style="fill:none;stroke:#0e0f1f;stroke-linejoin:round;stroke-width:2px"/><line x1="858.81" y1="182.22" x2="866.63" y2="179.25" style="fill:none;stroke:#0e0f1f;stroke-linejoin:round;stroke-width:2px"/><path d="M772,186.29s9.82-2.85,10.91-5.55a42,42,0,0,1-8.34-.85" style="fill:none;stroke:#0e0f1f;stroke-miterlimit:10;stroke-width:2px"/><path d="M783.93,197.64s1.53-13.55-1-16.9c0,0-3.81,11.26-8.34,14.86" style="fill:none;stroke:#0e0f1f;stroke-miterlimit:10;stroke-width:2px"/><path d="M794.93,183.45s-11.11-1.54-12-2.71c-1.69-2.27,11.11,10.79,11.11,10.79" style="fill:none;stroke:#0e0f1f;stroke-miterlimit:10;stroke-width:2px"/><path d="M783,180.74l7.72-6.08Z" style="fill:none;stroke:#0e0f1f;stroke-miterlimit:10;stroke-width:2px"/><path d="M783,180.74s1.85-15.5,13.31,2.79" style="fill:none;stroke:#0e0f1f;stroke-miterlimit:10;stroke-width:2px"/><path d="M756.27,140.51l8.24-6.49-1.64-.82c-2.48,5.24-10.47,4.8-10.47,4.8" style="fill:none;stroke:#0e0f1f;stroke-miterlimit:10;stroke-width:2px"/><path d="M765.06,139.09l-.55-5.07s34.68,17.66,38.88,46.14" style="fill:none;stroke:#0e0f1f;stroke-miterlimit:10;stroke-width:2px"/><path d="M787.53,93.71l10.91,9.4s-4.66-9.73-5.24-14.84" style="fill:none;stroke:#0e0f1f;stroke-linejoin:round;stroke-width:2px"/><polyline points="792.33 108.11 798.44 103.11 786 102.87" style="fill:none;stroke:#0e0f1f;stroke-linejoin:round;stroke-width:2px"/><path d="M805.2,100.47l-6.76,2.64c.58-4.79,4.27-12.89,4.27-12.89" style="fill:none;stroke:#0e0f1f;stroke-linejoin:round;stroke-width:2px"/><path d="M805.2,106.36l-6.76-3.25S814.39,146,807,180.16" style="fill:none;stroke:#0e0f1f;stroke-linejoin:round;stroke-width:2px"/><path d="M885.35,252.83c-5,3.83-23.13,16.93-21.34,56.42" style="fill:none;stroke:#0e0f1f;stroke-miterlimit:10;stroke-width:2px"/><path d="M890.3,297.57l-3.06,4.8Z" style="fill:none;stroke:#0e0f1f;stroke-miterlimit:10;stroke-width:2px"/><path d="M891,302.81l-.65-5.24,4.8,3.57-4.8-3.57,6.84.73-6.84-.73,4-2.18-4,2.18.22-1.67-.22,1.67-3.49-1.67,3.49,1.67s-21.3,6.47-26,12.65" style="fill:none;stroke:#0e0f1f;stroke-miterlimit:10;stroke-width:2px"/><polyline points="885.57 319.54 883.77 312.58 889.42 318.32" style="fill:none;stroke:#0e0f1f;stroke-miterlimit:10;stroke-width:2px"/><line x1="879.75" y1="319.54" x2="881.46" y2="315.03" style="fill:none;stroke:#0e0f1f;stroke-miterlimit:10;stroke-width:2px"/><path d="M878.3,312.85S859.87,325.48,853.57,334" style="fill:none;stroke:#0e0f1f;stroke-miterlimit:10;stroke-width:2px"/><path d="M824.18,318.67l-4.14,1Z" style="fill:none;stroke:#0e0f1f;stroke-linejoin:round;stroke-width:2px"/><polyline points="819.47 323.36 824.18 318.67 823.31 324.85" style="fill:none;stroke:#0e0f1f;stroke-linejoin:round;stroke-width:2px"/><polyline points="830.19 320.19 824.18 318.67 828.11 323.79" style="fill:none;stroke:#0e0f1f;stroke-linejoin:round;stroke-width:2px"/><line x1="830.19" y1="316.92" x2="824.18" y2="318.67" style="fill:none;stroke:#0e0f1f;stroke-linejoin:round;stroke-width:2px"/><line x1="827.65" y1="314.52" x2="824.64" y2="318.67" style="fill:none;stroke:#0e0f1f;stroke-linejoin:round;stroke-width:2px"/><path d="M824.55,275.75l1.59,1.83s-11.67,2.83-14.06,6" style="fill:none;stroke:#0e0f1f;stroke-miterlimit:10;stroke-width:2px"/><path d="M826.14,277.58l2-2.26Z" style="fill:none;stroke:#0e0f1f;stroke-miterlimit:10;stroke-width:2px"/><path d="M831.53,283.61l-5.39-6s2.05,2,6.7,1.74" style="fill:none;stroke:#0e0f1f;stroke-miterlimit:10;stroke-width:2px"/><line x1="826.15" y1="283.97" x2="826.14" y2="277.58" style="fill:none;stroke:#0e0f1f;stroke-miterlimit:10;stroke-width:2px"/><path d="M779.19,334.11c1.23,2.38,2.49,4.87,3.48,7" style="fill:none;stroke:#0e0f1f;stroke-miterlimit:10;stroke-width:3px"/><path d="M774.8,324.76a.88.88,0,0,0-.08,1c.69,1.25,2.54,4.67,4.47,8.38" style="fill:none;stroke:#0e0f1f;stroke-miterlimit:10;stroke-width:3px"/><path d="M794,335.67c-1,7.94-1.25,15.71.07,22.11,3.94,19.14,12.17,53.4,14.06,68.46,1.38,11.06,1.75,24.35,3.66,32.45" style="fill:none;stroke:#0e0f1f;stroke-miterlimit:10;stroke-width:3px"/><path d="M844.18,340.59c2.89-2.87,10.94-12.06,13.17-17.12,1.88-4.28,4.3-11.09,5.26-13.85a.87.87,0,0,1,1.4-.37h0a.88.88,0,0,1,.26,1c-1.17,3.14-6.78,18.07-9.25,21.63-2.76,4-8,11.94-10.18,25.93-2,12.55-2.76,38.56-4.22,53.25-1.1,11.16-3.46,32.45-8.1,47.66" style="fill:none;stroke:#0e0f1f;stroke-miterlimit:10;stroke-width:3px"/><path d="M818.57,458.69a36.56,36.56,0,0,0,3.09-7.8c1.87-7.42,12-33.4,12.78-36.22,1.31-4.58,5-43,5.46-52.15a135,135,0,0,1,1.29-14" style="fill:none;stroke:#0e0f1f;stroke-miterlimit:10;stroke-width:3px"/><path d="M821.06,485.26A74.58,74.58,0,0,0,818.37,505c0,6.26-.13,12.77-.13,12.77" style="fill:none;stroke:#0e0f1f;stroke-miterlimit:10;stroke-width:3px"/><path d="M800.09,458.69c-.76-9.47-3.61-43.78-6-55.58-2.82-13.75-7.84-53.6-10.24-59.42-.31-.76-.71-1.64-1.15-2.58" style="fill:none;stroke:#0e0f1f;stroke-miterlimit:10;stroke-width:3px"/><line x1="805" y1="485.26" x2="805" y2="518.96" style="fill:none;stroke:#0e0f1f;stroke-miterlimit:10;stroke-width:3px"/><path d="M803.74,282.12c.46-1,.88-2,1.26-2.73,5.44-11.13,6.09-29,4.79-37.75-1.17-7.74-5.51-31.65-6.47-36.93a.88.88,0,0,1,.87-1h1.93a.87.87,0,0,1,.87.76c.56,4.23,3.42,24.79,6.94,30.66a87.37,87.37,0,0,1,5.78,11.29.81.81,0,0,1,0,.55c-.64,2.54-5.57,22-10.14,36.42" style="fill:none;stroke:#0e0f1f;stroke-miterlimit:10;stroke-width:3px"/><path d="M794,335.67c.14-1.13.31-2.25.49-3.38" style="fill:none;stroke:#0e0f1f;stroke-miterlimit:10;stroke-width:2px"/><line x1="775.97" y1="323.27" x2="774.8" y2="324.76" style="fill:none;stroke:#0e0f1f;stroke-miterlimit:10;stroke-width:2px"/><path d="M794.48,332.29a166.69,166.69,0,0,1,7.74-29.57" style="fill:none;stroke:#0e0f1f;stroke-miterlimit:10;stroke-width:3px"/><path d="M805.24,295.38c.9-2,1.91-4.63,3-7.73" style="fill:none;stroke:#0e0f1f;stroke-miterlimit:10;stroke-width:2px"/><path d="M790.28,317.42c1.62-4.5,3.5-9.69,5.41-14.83" style="fill:none;stroke:#0e0f1f;stroke-miterlimit:10;stroke-width:3px"/><path d="M800.05,291.12c-.2.5-.39,1-.6,1.53" style="fill:none;stroke:#0e0f1f;stroke-miterlimit:10;stroke-width:2px"/><path d="M757.39,296c-23.7-6.93-29.5,8.45-29.5,8.45,12.09-.66,27.56-6.9,30.16-8" style="fill:none;stroke:#0e0f1f;stroke-miterlimit:10;stroke-width:2px"/><path d="M757.39,296l1.05.3" style="fill:none;stroke:#0e0f1f;stroke-miterlimit:10;stroke-width:2px"/><path d="M758.05,296.43l.39-.17" style="fill:none;stroke:#0e0f1f;stroke-miterlimit:10;stroke-width:2px"/><path d="M767.78,289.86c14.73-15.6,16.15-25.42,16.15-25.42-19,8.95-16.15,25.42-16.15,25.42" style="fill:none;stroke:#0e0f1f;stroke-miterlimit:10;stroke-width:2px"/><path d="M727.76,325.58c-.19.46-.38.91-.56,1.38,0,0,.54-.3,1.48-.85" style="fill:none;stroke:#0e0f1f;stroke-miterlimit:10;stroke-width:2px"/><path d="M758.44,299.91s-20.83,1.79-30.68,25.67" style="fill:none;stroke:#0e0f1f;stroke-miterlimit:10;stroke-width:2px"/><path d="M758.44,299.91c-9.72,13.68-25,23.37-29.76,26.2" style="fill:none;stroke:#0e0f1f;stroke-miterlimit:10;stroke-width:2px"/><path d="M760.83,321.8a84.77,84.77,0,0,1-5.26,13.07" style="fill:none;stroke:#0e0f1f;stroke-miterlimit:10;stroke-width:2px"/><path d="M760.83,321.8a61,61,0,0,0,2.92-19.72" style="fill:none;stroke:#0e0f1f;stroke-miterlimit:10;stroke-width:2px"/><path d="M753.38,335.79c.28.51.56,1,.87,1.53,0,0,.52-.88,1.32-2.45" style="fill:none;stroke:#0e0f1f;stroke-miterlimit:10;stroke-width:2px"/><path d="M750.37,326.69c-1.74-15.06,13.38-24.61,13.38-24.61" style="fill:none;stroke:#0e0f1f;stroke-miterlimit:10;stroke-width:2px"/><path d="M750.37,326.69a24.93,24.93,0,0,0,3,9.1" style="fill:none;stroke:#0e0f1f;stroke-miterlimit:10;stroke-width:2px"/><path d="M794,335.67l1,.45s-.11-1.49-.47-3.83" style="fill:none;stroke:#0e0f1f;stroke-miterlimit:10;stroke-width:2px"/><path d="M794.48,332.29a62.06,62.06,0,0,0-4.2-14.87" style="fill:none;stroke:#0e0f1f;stroke-miterlimit:10;stroke-width:2px"/><path d="M768.62,306.45c0,4.09,1.25,10.25,7.35,16.82" style="fill:none;stroke:#0e0f1f;stroke-miterlimit:10;stroke-width:2px"/><path d="M794,335.67c-8.47-4-14.19-8.29-18-12.4" style="fill:none;stroke:#0e0f1f;stroke-miterlimit:10;stroke-width:2px"/><path d="M769.42,301.43a14.7,14.7,0,0,0-.8,5" style="fill:none;stroke:#0e0f1f;stroke-miterlimit:10;stroke-width:2px"/><path d="M769.42,301.43c11,0,17.26,7.79,20.86,16" style="fill:none;stroke:#0e0f1f;stroke-miterlimit:10;stroke-width:2px"/><path d="M800.05,291.12a48.59,48.59,0,0,0,8.15-3.47" style="fill:none;stroke:#0e0f1f;stroke-miterlimit:10;stroke-width:2px"/><path d="M800.05,291.12c-.95.31-1.95.61-3,.88" style="fill:none;stroke:#0e0f1f;stroke-miterlimit:10;stroke-width:2px"/><path d="M797,292a62.41,62.41,0,0,1-18.85,1.89" style="fill:none;stroke:#0e0f1f;stroke-miterlimit:10;stroke-width:2px"/><path d="M803.74,282.12C781,278.62,772,293.35,772,293.35" style="fill:none;stroke:#0e0f1f;stroke-miterlimit:10;stroke-width:2px"/><path d="M772,293.35c2.13.28,4.18.45,6.15.54" style="fill:none;stroke:#0e0f1f;stroke-miterlimit:10;stroke-width:2px"/><path d="M803.74,282.12a52.86,52.86,0,0,1,5.87,1.24" style="fill:none;stroke:#0e0f1f;stroke-miterlimit:10;stroke-width:2px"/><path d="M808.2,287.65a30,30,0,0,0,5-3.24c-1.22-.4-2.4-.74-3.56-1.05" style="fill:none;stroke:#0e0f1f;stroke-miterlimit:10;stroke-width:2px"/><path d="M805.24,295.38a22.46,22.46,0,0,1,6.84,6.7c-3.53.4-6.81.6-9.86.64" style="fill:none;stroke:#0e0f1f;stroke-miterlimit:10;stroke-width:2px"/><path d="M772,296.52a58.16,58.16,0,0,1,6.15-2.63" style="fill:none;stroke:#0e0f1f;stroke-miterlimit:10;stroke-width:2px"/><path d="M797,292c.85.19,1.65.41,2.41.65" style="fill:none;stroke:#0e0f1f;stroke-miterlimit:10;stroke-width:2px"/><path d="M805.24,295.38a24.72,24.72,0,0,0-5.79-2.73" style="fill:none;stroke:#0e0f1f;stroke-miterlimit:10;stroke-width:2px"/><path d="M795.69,302.59c-16-.94-23.65-6.07-23.65-6.07" style="fill:none;stroke:#0e0f1f;stroke-miterlimit:10;stroke-width:2px"/><path d="M802.22,302.72c-2.31,0-4.49,0-6.53-.13" style="fill:none;stroke:#0e0f1f;stroke-miterlimit:10;stroke-width:2px"/><line x1="763.78" y1="294.15" x2="758.44" y2="296.26" style="fill:none;stroke:#0e0f1f;stroke-miterlimit:10;stroke-width:2px"/><line x1="758.44" y1="299.91" x2="760.21" y2="298" style="fill:none;stroke:#0e0f1f;stroke-miterlimit:10;stroke-width:2px"/><line x1="763.78" y1="294.15" x2="760.21" y2="298" style="fill:none;stroke:#0e0f1f;stroke-miterlimit:10;stroke-width:2px"/><line x1="763.78" y1="294.15" x2="767.78" y2="289.86" style="fill:none;stroke:#0e0f1f;stroke-miterlimit:10;stroke-width:2px"/><line x1="763.78" y1="294.15" x2="763.75" y2="300.88" style="fill:none;stroke:#0e0f1f;stroke-miterlimit:10;stroke-width:2px"/><line x1="769.42" y1="301.43" x2="763.78" y2="294.15" style="fill:none;stroke:#0e0f1f;stroke-miterlimit:10;stroke-width:2px"/><line x1="763.75" y1="300.88" x2="763.75" y2="302.08" style="fill:none;stroke:#0e0f1f;stroke-miterlimit:10;stroke-width:2px"/><line x1="772.04" y1="293.35" x2="763.78" y2="294.15" style="fill:none;stroke:#0e0f1f;stroke-miterlimit:10;stroke-width:2px"/><line x1="763.78" y1="294.15" x2="772.04" y2="296.52" style="fill:none;stroke:#0e0f1f;stroke-miterlimit:10;stroke-width:2px"/><path d="M748.25,341.65s-3,21.67,26.36,31c0,0-6.28-24.58-26.36-31" style="fill:#0e0f1f;stroke:#0e0f1f;stroke-miterlimit:10;stroke-width:2px"/><path d="M739.53,345.1s-9.44,5.2-15.41,17.49" style="fill:#0e0f1f;stroke:#0e0f1f;stroke-miterlimit:10;stroke-width:2px"/><path d="M724.12,384c5.36-9.65,13.93-26.61,15.41-38.9" style="fill:#0e0f1f;stroke:#0e0f1f;stroke-miterlimit:10;stroke-width:2px"/><path d="M745.78,345.87s-14.69,26.18,10.47,52.95c0,0,.44-39.86-10.47-52.95" style="fill:#0e0f1f;stroke:#0e0f1f;stroke-miterlimit:10;stroke-width:2px"/><path d="M737.78,340.19a86.81,86.81,0,0,1-13.66,11.06" style="fill:#0e0f1f;stroke:#0e0f1f;stroke-miterlimit:10;stroke-width:2px"/><path d="M737.78,340.19a28.66,28.66,0,0,0-13.66.2" style="fill:none;stroke:#0e0f1f;stroke-miterlimit:10;stroke-width:2px"/><path d="M728.68,326.11c-.31-.19-.62-.37-.92-.53" style="fill:none;stroke:#0e0f1f;stroke-miterlimit:10;stroke-width:2px"/><path d="M724.12,324.14a16.29,16.29,0,0,1,3.64,1.44" style="fill:none;stroke:#0e0f1f;stroke-miterlimit:10;stroke-width:2px"/><path d="M737.78,334.23a38.19,38.19,0,0,0-9.1-8.12" style="fill:#0e0f1f;stroke:#0e0f1f;stroke-miterlimit:10;stroke-width:2px"/><path d="M737.78,334.23a20.7,20.7,0,0,1-13.66-.32" style="fill:#0e0f1f;stroke:#0e0f1f;stroke-miterlimit:10;stroke-width:2px"/><path d="M740.25,282.74a18.69,18.69,0,0,0,4.08-7c1.31-4.21,2.32-12.65,2.32-12.65s-23.56,10.47-6.4,19.64" style="fill:#0e0f1f;stroke:#0e0f1f;stroke-miterlimit:10;stroke-width:2px"/><path d="M724.12,290.17a43.36,43.36,0,0,0,6.42-1.37" style="fill:none;stroke:#0e0f1f;stroke-miterlimit:10;stroke-width:2px"/><path d="M736.91,285.06s-2-10-9.71-4.51c-1.1.79-2.13,1.56-3.08,2.31" style="fill:#0e0f1f;stroke:#0e0f1f;stroke-miterlimit:10;stroke-width:2px"/><path d="M736.91,285.06c-1.17,1.7-3.58,2.89-6.37,3.74" style="fill:#0e0f1f;stroke:#0e0f1f;stroke-miterlimit:10;stroke-width:2px"/><path d="M734.69,291.39c2.08-3.19,3.82-5.89,3.82-5.89" style="fill:#0e0f1f;stroke:#0e0f1f;stroke-miterlimit:10;stroke-width:2px"/><path d="M734.69,291.39c-2.7,4.14-6,9.09-6.8,10" style="fill:none;stroke:#0e0f1f;stroke-miterlimit:10;stroke-width:2px"/><path d="M743.16,287.41c-5.39,5-15.11,14.1-15.33,14.11" style="fill:#0e0f1f;stroke:#0e0f1f;stroke-miterlimit:10;stroke-width:2px"/><path d="M727.89,301.43c-.06.07-.07.09-.06.09" style="fill:none;stroke:#0e0f1f;stroke-miterlimit:10;stroke-width:2px"/><path d="M743.16,287.41c1.93-1.8,3.31-3.07,3.49-3.22.73-.58-8.14,1.31-8.14,1.31" style="fill:#0e0f1f;stroke:#0e0f1f;stroke-miterlimit:10;stroke-width:2px"/><path d="M770.07,266.73a38.67,38.67,0,0,0-25.89,17.35C748.46,283,770.07,266.73,770.07,266.73Z" style="fill:#0e0f1f;stroke:#0e0f1f;stroke-miterlimit:10;stroke-width:2px"/><path d="M724.12,295.8a43.29,43.29,0,0,1,6.53-4" style="fill:none;stroke:#0e0f1f;stroke-miterlimit:10;stroke-width:2px"/><path d="M730.65,291.77l1.31-.38a3.72,3.72,0,0,0-1.31.38" style="fill:none;stroke:#0e0f1f;stroke-miterlimit:10;stroke-width:2px"/><path d="M724.12,293.92c2.73-1,5.13-1.73,6.53-2.15" style="fill:none;stroke:#0e0f1f;stroke-miterlimit:10;stroke-width:2px"/><path d="M724.12,291.33c4-1.46,6.42-2.53,6.42-2.53" style="fill:#0e0f1f;stroke:#0e0f1f;stroke-miterlimit:10;stroke-width:2px"/><path d="M729.42,373.89c-3.56,10.42,7.49,31.47,7.49,31.47s1.89-5.67,0-15.85-1.19-30.06-1.19-30.06" style="fill:none;stroke:#0e0f1f;stroke-miterlimit:10;stroke-width:2px"/><path d="M783.93,197.64s-18.63,51.78,14,82.62C797.94,280.26,815.24,220.33,783.93,197.64Z" style="fill:#0e0f1f;stroke:#0e0f1f;stroke-miterlimit:10;stroke-width:2px"/><path d="M737.13,239.5a83.26,83.26,0,0,0-2.44,18.36s35.73-30,39.92-62.26c0,0-16.49,5.35-28.28,22.92" style="fill:#0e0f1f;stroke:#0e0f1f;stroke-miterlimit:10;stroke-width:2px"/><path d="M737.13,239.5a66.57,66.57,0,0,1,9.2-21" style="fill:none;stroke:#0e0f1f;stroke-miterlimit:10;stroke-width:2px"/><path d="M721.76,208.84s-15,12.66-13,49c0,0,16.5-32.79,21.78-51.12" style="fill:none;stroke:#0e0f1f;stroke-miterlimit:10;stroke-width:2px"/><path d="M739.49,203.68s-24,24.65-13.42,56.07c0,0,5.38-8.88,11.06-20.25" style="fill:none;stroke:#0e0f1f;stroke-miterlimit:10;stroke-width:2px"/><path d="M737.13,239.5a200.35,200.35,0,0,0,9.2-21" style="fill:none;stroke:#0e0f1f;stroke-miterlimit:10;stroke-width:2px"/><path d="M746.33,218.52c2.68-7.47,4.38-14.49,3.89-19.54" style="fill:none;stroke:#0e0f1f;stroke-miterlimit:10;stroke-width:2px"/><line x1="737.78" y1="340.19" x2="742.47" y2="336.01" style="fill:none;stroke:#0e0f1f;stroke-miterlimit:10;stroke-width:2px"/><line x1="737.78" y1="334.23" x2="742.47" y2="336.01" style="fill:none;stroke:#0e0f1f;stroke-miterlimit:10;stroke-width:2px"/><line x1="739.53" y1="345.1" x2="742.47" y2="336.01" style="fill:none;stroke:#0e0f1f;stroke-miterlimit:10;stroke-width:2px"/><line x1="742.47" y1="336.01" x2="748.25" y2="341.65" style="fill:none;stroke:#0e0f1f;stroke-miterlimit:10;stroke-width:2px"/><line x1="742.47" y1="336.01" x2="745.78" y2="345.87" style="fill:none;stroke:#0e0f1f;stroke-miterlimit:10;stroke-width:2px"/><path d="M750.37,326.69a35,35,0,0,0-7.9,9.32" style="fill:none;stroke:#0e0f1f;stroke-miterlimit:10;stroke-width:2px"/><path d="M774.8,324.76c-5.22-2.94-9.9-3.6-14-3" style="fill:none;stroke:#0e0f1f;stroke-miterlimit:10;stroke-width:2px"/><path d="M742.47,336l7.75,1.31s19.83-6.94,33.71,3.07c0,0-17.62,13-33.71-3.07" style="fill:#0e0f1f;stroke:#0e0f1f;stroke-miterlimit:10;stroke-width:2px"/><line x1="727.89" y1="301.43" x2="727.83" y2="301.52" style="fill:none;stroke:#0e0f1f;stroke-miterlimit:10;stroke-width:2px"/><line x1="727.89" y1="301.43" x2="724.12" y2="305.43" style="fill:none;stroke:#0e0f1f;stroke-miterlimit:10;stroke-width:2px"/><line x1="724.12" y1="307.38" x2="727.83" y2="301.52" style="fill:none;stroke:#0e0f1f;stroke-miterlimit:10;stroke-width:2px"/><path d="M734.69,291.39s-6.85,1.23-10.57,7" style="fill:none;stroke:#0e0f1f;stroke-miterlimit:10;stroke-width:2px"/><line x1="740.25" y1="282.74" x2="740.32" y2="284.89" style="fill:none;stroke:#0e0f1f;stroke-miterlimit:10;stroke-width:2px"/><line x1="736.91" y1="285.06" x2="738.51" y2="285.5" style="fill:none;stroke:#0e0f1f;stroke-miterlimit:10;stroke-width:2px"/><path d="M757.39,296l.66.47" style="fill:none;stroke:#0e0f1f;stroke-miterlimit:10;stroke-width:2px"/><path d="M768.62,306.45a23.53,23.53,0,0,0-4.87-5.57" style="fill:none;stroke:#0e0f1f;stroke-miterlimit:10;stroke-width:2px"/><path d="M758.05,296.43c.73.51,1.45,1,2.16,1.57" style="fill:none;stroke:#0e0f1f;stroke-miterlimit:10;stroke-width:2px"/><path d="M757.39,296a144.27,144.27,0,0,0-14.23-8.55" style="fill:none;stroke:#0e0f1f;stroke-miterlimit:10;stroke-width:2px"/><path d="M763.75,300.88c-1.1-1-2.29-1.94-3.54-2.88" style="fill:none;stroke:#0e0f1f;stroke-miterlimit:10;stroke-width:2px"/><line x1="724.12" y1="362.59" x2="724.12" y2="384" style="fill:none;stroke:#0e0f1f;stroke-miterlimit:10;stroke-width:2px"/><line x1="724.12" y1="340.39" x2="724.12" y2="351.25" style="fill:none;stroke:#0e0f1f;stroke-miterlimit:10;stroke-width:2px"/><line x1="724.12" y1="305.43" x2="724.12" y2="307.38" style="fill:none;stroke:#0e0f1f;stroke-miterlimit:10;stroke-width:2px"/><line x1="724.12" y1="324.14" x2="724.12" y2="333.91" style="fill:none;stroke:#0e0f1f;stroke-miterlimit:10;stroke-width:2px"/><line x1="724.12" y1="351.25" x2="724.12" y2="362.59" style="fill:none;stroke:#0e0f1f;stroke-miterlimit:10;stroke-width:2px"/><line x1="724.12" y1="291.33" x2="724.12" y2="293.92" style="fill:none;stroke:#0e0f1f;stroke-miterlimit:10;stroke-width:2px"/><line x1="724.12" y1="282.86" x2="724.12" y2="290.17" style="fill:none;stroke:#0e0f1f;stroke-miterlimit:10;stroke-width:2px"/><line x1="724.12" y1="295.8" x2="724.12" y2="298.42" style="fill:none;stroke:#0e0f1f;stroke-miterlimit:10;stroke-width:2px"/><line x1="724.12" y1="298.42" x2="724.12" y2="305.43" style="fill:none;stroke:#0e0f1f;stroke-miterlimit:10;stroke-width:2px"/><line x1="724.12" y1="290.17" x2="724.12" y2="291.33" style="fill:none;stroke:#0e0f1f;stroke-miterlimit:10;stroke-width:2px"/><line x1="724.12" y1="307.38" x2="724.12" y2="324.14" style="fill:none;stroke:#0e0f1f;stroke-miterlimit:10;stroke-width:2px"/><line x1="724.12" y1="333.91" x2="724.12" y2="340.39" style="fill:none;stroke:#0e0f1f;stroke-miterlimit:10;stroke-width:2px"/><line x1="724.12" y1="293.92" x2="724.12" y2="295.8" style="fill:none;stroke:#0e0f1f;stroke-miterlimit:10;stroke-width:2px"/><line x1="818.57" y1="458.69" x2="811.78" y2="458.69" style="fill:none;stroke:#0e0f1f;stroke-miterlimit:10;stroke-width:2px"/><line x1="818.57" y1="458.69" x2="832.52" y2="458.69" style="fill:none;stroke:#0e0f1f;stroke-miterlimit:10;stroke-width:2px"/><line x1="800.09" y1="458.69" x2="811.78" y2="458.69" style="fill:none;stroke:#0e0f1f;stroke-miterlimit:10;stroke-width:2px"/><line x1="821.06" y1="485.26" x2="805" y2="485.26" style="fill:none;stroke:#0e0f1f;stroke-miterlimit:10;stroke-width:2px"/><path d="M860.9,649.72a15.71,15.71,0,0,0,4.31-10.8V529.72a4.22,4.22,0,0,0-4.21-4.21H850.42" style="fill:none;stroke:#0e0f1f;stroke-miterlimit:10;stroke-width:3px"/><path d="M779.53,525.51h-9.61a4.21,4.21,0,0,0-4.21,4.21v109.2c0,8.71,7.06,14.77,15.77,14.77h70.89" style="fill:none;stroke:#0e0f1f;stroke-miterlimit:10;stroke-width:3px"/><line x1="779.53" y1="525.51" x2="835.94" y2="525.51" style="fill:none;stroke:#0e0f1f;stroke-miterlimit:10;stroke-width:3px"/><path d="M853.42,525.51l-1.92-1.1a1.09,1.09,0,0,0-.23-.09l-1.33-.32" style="fill:none;stroke:#0e0f1f;stroke-miterlimit:10;stroke-width:2px"/><path d="M779.53,525.51l1.64-1.51a.86.86,0,0,1,.59-.23H783a.9.9,0,0,0,.73-.39l.35-.53a.87.87,0,0,1,.73-.39h2.56a.89.89,0,0,0,.56-.2l3.15-2.65a.88.88,0,0,1,.56-.21h2.27a1,1,0,0,0,.34-.06l1.15-.48a.83.83,0,0,1,.82.08l.44.29a.88.88,0,0,0,1,0L801,517a.87.87,0,0,1,1,0l2.46,1.79a.9.9,0,0,0,.55.17l3.23-.13.2,0,7.41-2.06a.89.89,0,0,1,.66.07l3.46,1.91a.87.87,0,0,0,.88,0l3.14-1.93a.87.87,0,0,1,.45-.13h1.78a.87.87,0,0,1,.54.19l3.55,2.81a.87.87,0,0,0,.93.1l2.26-1.13a.88.88,0,0,1,.86,0l.77.48" style="fill:none;stroke:#0e0f1f;stroke-miterlimit:10;stroke-width:2px"/><line x1="850.07" y1="525.51" x2="860.9" y2="649.72" style="fill:none;stroke:#0e0f1f;stroke-miterlimit:10;stroke-width:2px"/><line x1="830.85" y1="485.1" x2="852.5" y2="654.66" style="fill:none;stroke:#0e0f1f;stroke-miterlimit:10;stroke-width:2px"/><line x1="849.94" y1="524" x2="850.07" y2="525.51" style="fill:none;stroke:#0e0f1f;stroke-miterlimit:10;stroke-width:2px"/><line x1="846.56" y1="485.26" x2="849.94" y2="524" style="fill:none;stroke:#0e0f1f;stroke-miterlimit:10;stroke-width:2px"/><line x1="835.94" y1="525.51" x2="835.12" y2="519.13" style="fill:none;stroke:#0e0f1f;stroke-miterlimit:10;stroke-width:2px"/><line x1="832.42" y1="498.37" x2="832.43" y2="498.37" style="fill:none;stroke:#0e0f1f;stroke-miterlimit:10;stroke-width:2px"/><polyline points="852.5 654.66 861.32 654.69 860.9 649.04" style="fill:none;stroke:#0e0f1f;stroke-miterlimit:10;stroke-width:2px"/><line x1="847.1" y1="498.37" x2="832.42" y2="498.37" style="fill:none;stroke:#0e0f1f;stroke-miterlimit:10;stroke-width:2px"/><path d="M719.59,433.36H500.72a4.53,4.53,0,0,1-4.52-4.52V280.31a4.53,4.53,0,0,1,4.52-4.52H719.59a4.54,4.54,0,0,1,4.53,4.52V428.84A4.54,4.54,0,0,1,719.59,433.36Z" style="fill:none;stroke:#0e0f1f;stroke-miterlimit:10;stroke-width:3px"/><rect x="506.05" y="285.64" width="208.22" height="137.7" style="fill:none;stroke:#0e0f1f;stroke-miterlimit:10;stroke-width:2px"/><rect x="572.17" y="450.82" width="75.97" height="7.87" style="fill:none;stroke:#0e0f1f;stroke-miterlimit:10;stroke-width:2px"/><rect x="592.39" y="433.36" width="35.54" height="17.45" style="fill:none;stroke:#0e0f1f;stroke-miterlimit:10;stroke-width:2px"/><path d="M408.38,458.69c4,4.46,8.07,8.87,12.1,13.14.82.87,1.68,1.73,2.56,2.59" style="fill:none;stroke:#0e0f1f;stroke-miterlimit:10;stroke-width:3px"/><path d="M423,474.42a122.87,122.87,0,0,0,12.47,10.49" style="fill:none;stroke:#0e0f1f;stroke-miterlimit:10;stroke-width:3px"/><path d="M326,382.07a23.68,23.68,0,0,1,4.76,1.4" style="fill:none;stroke:#0e0f1f;stroke-miterlimit:10;stroke-width:3px"/><path d="M435.51,484.91c41.37,30.8,112.23,54.57,107.46,101.5-4,30.86-18.61,52-38.92,67.07H312.58" style="fill:none;stroke:#0e0f1f;stroke-miterlimit:10;stroke-width:3px"/><path d="M271.57,442.76c-2-16.17-8.57-32.77,3.17-44.27,3-2.93,9.85-7.79,18.67-11.59" style="fill:none;stroke:#0e0f1f;stroke-miterlimit:10;stroke-width:3px"/><line x1="330.71" y1="383.47" x2="330.71" y2="383.47" style="fill:none;stroke:#0e0f1f;stroke-miterlimit:10;stroke-width:2px"/><path d="M272,452.4c-.07,1.27-.19,2.53-.38,3.77-.11.69-.24,1.54-.39,2.52" style="fill:none;stroke:#0e0f1f;stroke-miterlimit:10;stroke-width:3px"/><path d="M293.41,386.9c9.35-4,20.92-6.84,32.49-4.84H326" style="fill:none;stroke:#0e0f1f;stroke-miterlimit:10;stroke-width:3px"/><path d="M398.17,447.28c-25.54-28.71-49.88-56.83-67.46-63.81" style="fill:none;stroke:#0e0f1f;stroke-miterlimit:10;stroke-width:3px"/><path d="M408.38,458.69l-5-5.53" style="fill:none;stroke:#0e0f1f;stroke-miterlimit:10;stroke-width:3px"/><path d="M398.17,447.28l5.24,5.88" style="fill:none;stroke:#0e0f1f;stroke-miterlimit:10;stroke-width:3px"/><path d="M268,484.91c-4.78,48.34-7.51,138.23,34.63,168.57h15.81" style="fill:none;stroke:#0e0f1f;stroke-miterlimit:10;stroke-width:3px"/><path d="M271.25,458.69c-.54,3.56-1.3,9-2.09,15.73" style="fill:none;stroke:#0e0f1f;stroke-miterlimit:10;stroke-width:3px"/><path d="M271.57,442.76a57,57,0,0,1,.45,9.64" style="fill:none;stroke:#0e0f1f;stroke-miterlimit:10;stroke-width:3px"/><path d="M268,484.91c.37-3.78.76-7.29,1.14-10.49" style="fill:none;stroke:#0e0f1f;stroke-miterlimit:10;stroke-width:2px"/><line x1="456.61" y1="654.48" x2="328.23" y2="654.48" style="fill:none;stroke:#0e0f1f;stroke-miterlimit:10;stroke-width:2px"/><line x1="472.58" y1="654.48" x2="456.61" y2="654.48" style="fill:none;stroke:#0e0f1f;stroke-miterlimit:10;stroke-width:2px"/><line x1="318.46" y1="654.48" x2="328.23" y2="654.48" style="fill:none;stroke:#0e0f1f;stroke-miterlimit:10;stroke-width:2px"/><path d="M352.72,458.69c-1.57-1.84-3.09-3.69-4.56-5.53" style="fill:none;stroke:#0e0f1f;stroke-miterlimit:10;stroke-width:2px"/><path d="M490.25,604.4c-.09-2.18-.29-4.35-.58-6.51" style="fill:none;stroke:#0e0f1f;stroke-miterlimit:10;stroke-width:2px"/><path d="M380.74,484.91c-3.95-2.89-7.63-5.88-11.09-8.93" style="fill:none;stroke:#0e0f1f;stroke-miterlimit:10;stroke-width:2px"/><path d="M369.65,476c-.59-.52-1.18-1-1.75-1.56" style="fill:none;stroke:#0e0f1f;stroke-miterlimit:10;stroke-width:2px"/><path d="M343.62,447.28c-4.66-6.22-8.88-12.41-12.91-18.37" style="fill:none;stroke:#0e0f1f;stroke-miterlimit:10;stroke-width:2px"/><path d="M319,412c-7.68-10.48-15.57-19.33-25.61-25.1" style="fill:none;stroke:#0e0f1f;stroke-miterlimit:10;stroke-width:2px"/><path d="M319,412c1.91,2.61,3.81,5.33,5.73,8.12" style="fill:none;stroke:#0e0f1f;stroke-miterlimit:10;stroke-width:2px"/><path d="M293.41,386.9l-.07,0" style="fill:none;stroke:#0e0f1f;stroke-miterlimit:10;stroke-width:2px"/><path d="M330.71,428.91h0" style="fill:none;stroke:#0e0f1f;stroke-miterlimit:10;stroke-width:2px"/><path d="M358.61,465.26c2.91,3.1,6,6.16,9.29,9.16" style="fill:none;stroke:#0e0f1f;stroke-miterlimit:10;stroke-width:2px"/><path d="M348.16,453.16q-2.34-2.94-4.54-5.88" style="fill:none;stroke:#0e0f1f;stroke-miterlimit:10;stroke-width:2px"/><path d="M326,421.87l4.76,7" style="fill:none;stroke:#0e0f1f;stroke-miterlimit:10;stroke-width:2px"/><path d="M358.61,465.26q-3.08-3.27-5.89-6.57" style="fill:none;stroke:#0e0f1f;stroke-miterlimit:10;stroke-width:2px"/><path d="M487.61,587.65a77.69,77.69,0,0,1,2.06,10.24" style="fill:none;stroke:#0e0f1f;stroke-miterlimit:10;stroke-width:2px"/><path d="M324.75,420.12l1.2,1.75" style="fill:none;stroke:#0e0f1f;stroke-miterlimit:10;stroke-width:2px"/><path d="M380.74,484.91a159.79,159.79,0,0,0,23.46,14.21c38.65,19.18,73.63,52.38,83.41,88.53" style="fill:none;stroke:#0e0f1f;stroke-miterlimit:10;stroke-width:2px"/><path d="M490.25,604.4c.72,16.78-4.49,33.82-17.67,50.08" style="fill:none;stroke:#0e0f1f;stroke-miterlimit:10;stroke-width:2px"/><line x1="319.02" y1="412" x2="315.67" y2="414.15" style="fill:none;stroke:#0e0f1f;stroke-miterlimit:10;stroke-width:2px"/><line x1="319.02" y1="412" x2="322.65" y2="409.66" style="fill:none;stroke:#0e0f1f;stroke-miterlimit:10;stroke-width:2px"/><line x1="325.95" y1="419.46" x2="328.85" y2="417.88" style="fill:none;stroke:#0e0f1f;stroke-miterlimit:10;stroke-width:2px"/><line x1="320.63" y1="422.37" x2="324.75" y2="420.12" style="fill:none;stroke:#0e0f1f;stroke-miterlimit:10;stroke-width:2px"/><line x1="324.75" y1="420.12" x2="325.95" y2="419.46" style="fill:none;stroke:#0e0f1f;stroke-miterlimit:10;stroke-width:2px"/><line x1="369.98" y1="474.42" x2="369.65" y2="475.98" style="fill:none;stroke:#0e0f1f;stroke-miterlimit:10;stroke-width:2px"/><line x1="369.65" y1="475.98" x2="368.54" y2="481.13" style="fill:none;stroke:#0e0f1f;stroke-miterlimit:10;stroke-width:2px"/><line x1="369.98" y1="474.42" x2="370.87" y2="470.28" style="fill:none;stroke:#0e0f1f;stroke-miterlimit:10;stroke-width:2px"/><line x1="358.61" y1="465.26" x2="354.43" y2="466.1" style="fill:none;stroke:#0e0f1f;stroke-miterlimit:10;stroke-width:2px"/><line x1="358.61" y1="465.26" x2="364.51" y2="464.08" style="fill:none;stroke:#0e0f1f;stroke-miterlimit:10;stroke-width:2px"/><line x1="490.25" y1="604.4" x2="495.99" y2="604.4" style="fill:none;stroke:#0e0f1f;stroke-miterlimit:10;stroke-width:2px"/><line x1="486.38" y1="604.4" x2="490.25" y2="604.4" style="fill:none;stroke:#0e0f1f;stroke-miterlimit:10;stroke-width:2px"/><line x1="495.99" y1="597.89" x2="489.67" y2="597.89" style="fill:none;stroke:#0e0f1f;stroke-miterlimit:10;stroke-width:2px"/><line x1="484.21" y1="597.89" x2="489.67" y2="597.89" style="fill:none;stroke:#0e0f1f;stroke-miterlimit:10;stroke-width:2px"/><line x1="482.03" y1="589.51" x2="487.61" y2="587.65" style="fill:none;stroke:#0e0f1f;stroke-miterlimit:10;stroke-width:2px"/><line x1="487.61" y1="587.65" x2="494.13" y2="585.48" style="fill:none;stroke:#0e0f1f;stroke-miterlimit:10;stroke-width:2px"/><path d="M289.78,589.51c0,23.88,17.83,57.22,28.68,65" style="fill:none;stroke:#0e0f1f;stroke-miterlimit:10;stroke-width:2px"/><path d="M328.23,654.48c-6.67-2.17-16-29.93-16-44.19,0,0,21.42,43.11,37.42,43.36s-21.45.83-21.45.83" style="fill:#0e0f1f;stroke:#0e0f1f;stroke-miterlimit:10;stroke-width:2px"/><path d="M468.55,634c-2.64,9.3-7.76,17.21-11.94,20.47" style="fill:none;stroke:#0e0f1f;stroke-miterlimit:10;stroke-width:2px"/><path d="M281.92,458.69a45.36,45.36,0,0,0,12.51,7.41" style="fill:none;stroke:#0e0f1f;stroke-miterlimit:10;stroke-width:2px"/><path d="M271.57,442.76l-.09-.23" style="fill:none;stroke:#0e0f1f;stroke-miterlimit:10;stroke-width:2px"/><path d="M271.57,442.76a35.58,35.58,0,0,0,10.35,15.93" style="fill:none;stroke:#0e0f1f;stroke-miterlimit:10;stroke-width:2px"/><path d="M272,451.83c0,.2,0,.38.07.57" style="fill:none;stroke:#0e0f1f;stroke-miterlimit:10;stroke-width:2px"/><path d="M271.25,458.69H217.6a5.26,5.26,0,0,0-5.24,5.24v5.24a5.26,5.26,0,0,0,5.24,5.25h5.25" style="fill:none;stroke:#0e0f1f;stroke-miterlimit:10;stroke-width:2px"/><path d="M894.31,474.42h5.24a5.26,5.26,0,0,0,5.25-5.25v-5.24a5.26,5.26,0,0,0-5.25-5.24h-425" style="fill:none;stroke:#0e0f1f;stroke-miterlimit:10;stroke-width:2px"/><line x1="423.04" y1="474.42" x2="894.31" y2="474.42" style="fill:none;stroke:#0e0f1f;stroke-miterlimit:10;stroke-width:2px"/><line x1="222.85" y1="474.42" x2="269.16" y2="474.42" style="fill:none;stroke:#0e0f1f;stroke-miterlimit:10;stroke-width:2px"/><line x1="369.98" y1="474.42" x2="367.9" y2="474.42" style="fill:none;stroke:#0e0f1f;stroke-miterlimit:10;stroke-width:2px"/><path d="M435.51,484.91H891.69a2.63,2.63,0,0,0,2.62-2.63v-7.86" style="fill:none;stroke:#0e0f1f;stroke-miterlimit:10;stroke-width:2px"/><path d="M222.85,474.42v7.86a2.63,2.63,0,0,0,2.62,2.63H268" style="fill:none;stroke:#0e0f1f;stroke-miterlimit:10;stroke-width:2px"/><path d="M466.19,453.16a5.36,5.36,0,0,0,.28-1.7V364.57a5.23,5.23,0,0,0-5.23-5.23H331.18a5.23,5.23,0,0,0-5.23,5.23v17.5" style="fill:none;stroke:#0e0f1f;stroke-miterlimit:10;stroke-width:3px"/><line x1="325.95" y1="421.87" x2="325.95" y2="419.46" style="fill:none;stroke:#0e0f1f;stroke-miterlimit:10;stroke-width:2px"/><path d="M474.54,458.69a14.69,14.69,0,0,0,7.51-2h0l.19-.14a.45.45,0,0,0,.16-.38v-2.7a.28.28,0,0,0-.28-.27H466.19" style="fill:none;stroke:#0e0f1f;stroke-miterlimit:10;stroke-width:2px"/><line x1="408.38" y1="458.69" x2="474.54" y2="458.69" style="fill:none;stroke:#0e0f1f;stroke-miterlimit:10;stroke-width:2px"/><polyline points="398.17 447.28 461.68 447.28 461.68 365.38 330.71 365.38 330.71 367.07 330.71 383.15" style="fill:none;stroke:#0e0f1f;stroke-miterlimit:10;stroke-width:2px"/><line x1="466.19" y1="453.16" x2="403.41" y2="453.16" style="fill:none;stroke:#0e0f1f;stroke-miterlimit:10;stroke-width:2px"/><path d="M774.88,457.65H764.39c-5.77,0-10.48-3.72-10.48-9.49V419.32h31.46v28.84C785.37,453.93,780.65,457.65,774.88,457.65Z" style="fill:none;stroke:#0e0f1f;stroke-miterlimit:10;stroke-width:3px"/><line x1="753.91" y1="427.18" x2="785.37" y2="427.18" style="fill:none;stroke:#0e0f1f;stroke-miterlimit:10;stroke-width:2px"/><path d="M783.27,367.28v.91a13.11,13.11,0,0,1-9.83,12.72" style="fill:none;stroke:#0e0f1f;stroke-miterlimit:10;stroke-width:2px;isolation:isolate"/><path d="M775.93,356.4a12,12,0,0,0-5.77-1.32" style="fill:none;stroke:#0e0f1f;stroke-miterlimit:10;stroke-width:2px;isolation:isolate"/><path d="M781.3,361.25c-.26-.4-.52-.66-.78-1.05" style="fill:none;stroke:#0e0f1f;stroke-miterlimit:10;stroke-width:2px;isolation:isolate"/><path d="M762.82,385a9,9,0,0,0-1.84,5.51,9.11,9.11,0,0,0,5.12,8.26" style="fill:none;stroke:#0e0f1f;stroke-miterlimit:10;stroke-width:2px;isolation:isolate"/><path d="M772.78,400.31a5.27,5.27,0,0,1-2.62,9.83" style="fill:none;stroke:#0e0f1f;stroke-miterlimit:10;stroke-width:2px;isolation:isolate"/><line x1="753.77" y1="433.74" x2="769.5" y2="433.74" style="fill:none;stroke:#0e0f1f;stroke-miterlimit:10;stroke-width:2px"/><line x1="753.39" y1="438.98" x2="763.88" y2="438.98" style="fill:none;stroke:#0e0f1f;stroke-miterlimit:10;stroke-width:2px"/><polygon points="109.23 654.05 61.42 654.05 53.52 613.1 115.82 613.1 109.23 654.05" style="fill:none;stroke:#0e0f1f;stroke-miterlimit:10;stroke-width:3px"/><line x1="61.88" y1="622.52" x2="61.05" y2="618.13" style="fill:none;stroke:#0e0f1f;stroke-miterlimit:10;stroke-width:2px"/><line x1="67" y1="649.68" x2="62.73" y2="627.05" style="fill:none;stroke:#0e0f1f;stroke-miterlimit:10;stroke-width:2px"/><rect x="50.1" y="594.43" width="69.12" height="18.67" rx="3" ry="3" style="fill:none;stroke:#0e0f1f;stroke-miterlimit:10;stroke-width:3px"/><path d="M55.05,594.43c-4.95-29.26-43.48-68.3-43.48-68.3s52,28.66,65.67,68.3" style="fill:none;stroke:#0e0f1f;stroke-miterlimit:10;stroke-width:3px"/><path d="M75.54,547.43c.37-42,6.53-89.39,6.53-89.39S58.72,502.59,59.34,564.8L67,574.22" style="fill:#0e0f1f;stroke:#0e0f1f;stroke-miterlimit:10;stroke-width:2px"/><path d="M67,575.28c5.7-28.85,20.78-52,20.78-52s-2.35,19.44-3.86,38.66" style="fill:none;stroke:#0e0f1f;stroke-miterlimit:10;stroke-width:2px"/><path d="M98.26,558.44c10.18-21,22.68-43.07,22.68-43.07S85.4,553.48,71.62,581.43l3.25,7.06a140.21,140.21,0,0,1,23.39-30" style="fill:#0e0f1f;stroke:#0e0f1f;stroke-miterlimit:10;stroke-width:2px"/><path d="M98.26,558.44c-.59,1.21-16.83,19.21-22.49,30.8l2.47,4.5,9.86-.31,6.75-8.69,11.55-6.24C122.78,550.82,169,510.34,169,510.31s-39.94,17.37-70.78,48.13" style="fill:#0e0f1f;stroke:#0e0f1f;stroke-miterlimit:10;stroke-width:2px"/><path d="M87.78,594.43c28-34.15,81.26-30.53,81.26-30.53s-53.37,19.77-55.12,30.53" style="fill:none;stroke:#0e0f1f;stroke-miterlimit:10;stroke-width:2px"/><line x1="135.55" y1="654.66" x2="19.34" y2="654.66" style="fill:none;stroke:#0e0f1f;stroke-miterlimit:10;stroke-width:2px"/><line x1="159.64" y1="654.66" x2="151.08" y2="654.66" style="fill:none;stroke:#0e0f1f;stroke-miterlimit:10;stroke-width:2px"/><line x1="580.1" y1="654.66" x2="251.77" y2="654.66" style="fill:none;stroke:#0e0f1f;stroke-miterlimit:10;stroke-width:2px"/><line x1="723.43" y1="654.66" x2="710.77" y2="654.66" style="fill:none;stroke:#0e0f1f;stroke-miterlimit:10;stroke-width:2px"/><line x1="677.77" y1="654.66" x2="625.1" y2="654.66" style="fill:none;stroke:#0e0f1f;stroke-miterlimit:10;stroke-width:2px"/><line x1="901.43" y1="654.66" x2="741.43" y2="654.66" style="fill:none;stroke:#0e0f1f;stroke-miterlimit:10;stroke-width:2px"/><line x1="901.43" y1="654.66" x2="741.43" y2="654.66" style="fill:none;stroke:#0e0f1f;stroke-miterlimit:10;stroke-width:2px"/><line x1="1068.43" y1="654.66" x2="961.43" y2="654.66" style="fill:none;stroke:#0e0f1f;stroke-miterlimit:10;stroke-width:1.6355429887771606px"/><line x1="785.37" y1="674.66" x2="766.5" y2="674.66" style="fill:none;stroke:#0e0f1f;stroke-miterlimit:10;stroke-width:3px"/><line x1="851.75" y1="674.66" x2="797.43" y2="674.66" style="fill:none;stroke:#0e0f1f;stroke-miterlimit:10;stroke-width:3px"/><polygon points="514.77 298.88 514.77 414 556.77 414 514.77 298.88" style="fill:#0e0f1f;stroke:#0e0f1f;stroke-miterlimit:10;stroke-width:2px"/><polygon points="669.91 295.97 703.51 295.58 703.51 333.07 669.91 295.97" style="fill:#0e0f1f;stroke:#0e0f1f;stroke-miterlimit:10;stroke-width:2px"/><path d="M774.37,565.9v63.52a20.86,20.86,0,0,0,4.2,12.56l.8,1a11,11,0,0,0,8.79,4.37h14.3l-13.05-23.82a64,64,0,0,1-6.43-17.3Z" style="fill:#0e0f1f;stroke:#0e0f1f;stroke-miterlimit:10;stroke-width:2px"/><polygon points="418.41 374.63 451.43 387.41 451.43 374.42 418.41 374.63" style="fill:#0e0f1f;stroke:#0e0f1f;stroke-miterlimit:10;stroke-width:2px"/><polygon points="452.27 440.98 452.27 424.15 377.23 424.15 389.98 437.7 392.33 440.34 452.27 440.98" style="fill:#0e0f1f;stroke:#0e0f1f;stroke-miterlimit:10;stroke-width:2px"/></svg>