<svg xmlns="http://www.w3.org/2000/svg" viewBox="0 0 1080 680"><title>inkOfPixel - Hero</title><path d="M772,186.52s-37.46,26.76-66.55,23.27C705.42,209.79,732,173.43,772,186.52Z" style="fill:#0d0e1f;stroke:#0d0e1f;stroke-miterlimit:10;stroke-width:2px"/><path d="M774.54,180.12s-30.87,3.49-48.54-14.84C726,165.28,757.63,155.08,774.54,180.12Z" style="fill:#0d0e1f;stroke:#0d0e1f;stroke-miterlimit:10;stroke-width:2px"/><path d="M794,191.76s1.57,33.16,52.36,47.42C846.35,239.18,833.1,192.92,794,191.76Z" style="fill:#0d0e1f;stroke:#0d0e1f;stroke-miterlimit:10;stroke-width:2px"/><path d="M794.86,183.68s30.71,23.79,67.66,14.19C862.52,197.87,834.27,168.91,794.86,183.68Z" style="fill:#0d0e1f;stroke:#0d0e1f;stroke-miterlimit:10;stroke-width:2px"/><path d="M790.6,174.88s5.59-26.47,44.57-33.45C835.17,141.43,819.64,167.32,790.6,174.88Z" style="fill:#0d0e1f;stroke:#0d0e1f;stroke-miterlimit:10;stroke-width:2px"/><path d="M714.59,200.15s-10-.39-18.12,13.35-10.25,20.73-10.25,20.73,29.79-15.52,33.44-24.12" style="fill:none;stroke:#0d0e1f;stroke-miterlimit:10;stroke-width:2px"/><path d="M727.74,190.86s-19.27,4.75-29.3,1.91c0,0,19.23-23.5,44.31-7.71" style="fill:none;stroke:#0d0e1f;stroke-miterlimit:10;stroke-width:2px"/><path d="M765,139.32s-18.11,15.08,3.49,23.9C768.48,163.22,778.51,140.63,765,139.32Z" style="fill:#0d0e1f;stroke:#0d0e1f;stroke-miterlimit:10;stroke-width:2px"/><path d="M757.88,140.19s-53.77,17.24-68,30.11C689.93,170.3,708.66,141.06,757.88,140.19Z" style="fill:#0d0e1f;stroke:#0d0e1f;stroke-miterlimit:10;stroke-width:2px"/><path d="M752.33,138.23s-25.75-.44-34.91,1.09-24.66,4.36-24.66,4.36S719.6,128.41,752.33,138.23Z" style="fill:#0d0e1f;stroke:#0d0e1f;stroke-miterlimit:10;stroke-width:2px"/><path d="M762.8,133.43s9.82-25.75,29.46-25.1C792.26,108.33,788.48,131.58,762.8,133.43Z" style="fill:#0d0e1f;stroke:#0d0e1f;stroke-miterlimit:10;stroke-width:2px"/><path d="M785.93,103.1s-43.2,2.61-58.26-9.6C727.67,93.5,757.35,77.35,785.93,103.1Z" style="fill:none;stroke:#0d0e1f;stroke-miterlimit:10;stroke-width:2px"/><path d="M787.46,93.93S738.8,56.4,737.49,35C737.49,35,774.38,29.61,787.46,93.93Z" style="fill:none;stroke:#0d0e1f;stroke-miterlimit:10;stroke-width:2px"/><path d="M793.13,88.5S765.64,41.78,773.49,5.56C773.49,5.56,814.3,47.28,793.13,88.5Z" style="fill:none;stroke:#0d0e1f;stroke-miterlimit:10;stroke-width:2px"/><path d="M802.64,90.44s7.8-58.91,32.53-68.51C835.17,21.93,839.46,77.8,802.64,90.44Z" style="fill:none;stroke:#0d0e1f;stroke-miterlimit:10;stroke-width:2px"/><path d="M805.13,100.7s17.63-22.26,41.22-13.1C846.35,87.6,839.17,105.06,805.13,100.7Z" style="fill:none;stroke:#0d0e1f;stroke-miterlimit:10;stroke-width:2px"/><path d="M805.13,106.59s7.28,14.4,30,15.49C835.17,122.08,825.43,99.39,805.13,106.59Z" style="fill:none;stroke:#0d0e1f;stroke-miterlimit:10;stroke-width:2px"/><path d="M853.57,101.4s-18.57-43,10.68-62C864.25,39.38,865.79,85.3,853.57,101.4Z" style="fill:#0d0e1f;stroke:#0d0e1f;stroke-miterlimit:10;stroke-width:2px"/><path d="M863.39,101.4S876.05,59,918.81,54.66C918.81,54.66,890.88,92.06,863.39,101.4Z" style="fill:#0d0e1f;stroke:#0d0e1f;stroke-miterlimit:10;stroke-width:2px"/><path d="M857.5,111.39s8.29,10.91,32.18,3C889.68,114.44,875.83,99,857.5,111.39Z" style="fill:#0d0e1f;stroke:#0d0e1f;stroke-miterlimit:10;stroke-width:2px"/><path d="M832.44,98.73c2.65,6.55,16.55,9.59,16.55,9.59s3.88-16.13-2.64-20.72" style="fill:#0d0e1f;stroke:#0d0e1f;stroke-miterlimit:10;stroke-width:2px"/><path d="M841.29,149.14c34,6,33.25,5.62,53.34,14C894.63,163.14,864.44,137.85,841.29,149.14Z" style="fill:none;stroke:#0d0e1f;stroke-miterlimit:10;stroke-width:2px"/><path d="M842.91,145.26s15.46-9.22,27.46-7.91,30.77,8.85,34.26,13.92C904.63,151.27,875.35,135.4,842.91,145.26Z" style="fill:none;stroke:#0d0e1f;stroke-miterlimit:10;stroke-width:2px"/><path d="M869.28,147.05s38.4,8.63,53.9,21.94C923.18,169,900.05,144.62,869.28,147.05Z" style="fill:none;stroke:#0d0e1f;stroke-miterlimit:10;stroke-width:2px"/><path d="M857.5,175.76s-26-8.37-31.76-17.61C825.74,158.15,851.61,157.86,857.5,175.76Z" style="fill:none;stroke:#0d0e1f;stroke-miterlimit:10;stroke-width:2px"/><path d="M888.57,158.15s6,18-19.29,17.61c0,0,1.73-18.27,19.29-17.61,19.9.75,39.63,22.23,39.63,22.23-15.5-23.73-57-31.27-57-31.27" style="fill:none;stroke:#0d0e1f;stroke-miterlimit:10;stroke-width:2px"/><path d="M870.59,183.68S904,199.54,909,209.14s12.66,26.18,12.66,26.18S874.74,196.83,870.59,183.68Z" style="fill:none;stroke:#0d0e1f;stroke-miterlimit:10;stroke-width:2px"/><path d="M858.37,199.2c-3.27,11.67,5.88,29.14,5.88,29.14,22-17.24.06-40.15.06-40.15s-4.62,2.18-5.28,6.59" style="fill:none;stroke:#0d0e1f;stroke-miterlimit:10;stroke-width:2px"/><path d="M874.06,214.59c1.93,17,18.57,40.81,18.57,40.81,4.4-26.91-4-43.94-12-53.54a44.1,44.1,0,0,0-11.4-10.1,4.74,4.74,0,0,0,0,3.63" style="fill:none;stroke:#0d0e1f;stroke-miterlimit:10;stroke-width:2px"/><path d="M880.68,201.86s20.24,11.36,23.08,31.58c0,0-10.42-3.33-11.54-7.62" style="fill:none;stroke:#0d0e1f;stroke-miterlimit:10;stroke-width:2px"/><path d="M849.31,188.19c9.92-.8,9.43-5.74,9.43-5.74s-11.35-13.29-28.51-2.07" style="fill:none;stroke:#0d0e1f;stroke-miterlimit:10;stroke-width:2px"/><path d="M845.79,200.15s.2,26.23-20,36.85c0,0-2.75-31.08,6.91-37.8" style="fill:none;stroke:#0d0e1f;stroke-miterlimit:10;stroke-width:2px"/><path d="M857.84,202a34.48,34.48,0,0,0-2.9-2.57" style="fill:none;stroke:#0d0e1f;stroke-miterlimit:10;stroke-width:2px"/><path d="M847.54,200.09s1.42,46.94,16.71,59c0,0,6.87-17.83,4.09-35.54" style="fill:none;stroke:#0d0e1f;stroke-miterlimit:10;stroke-width:2px"/><path d="M828,324s-2.07,18.87,17.13,26.73C845.17,350.75,845.72,324.24,828,324Z" style="fill:none;stroke:#0d0e1f;stroke-miterlimit:10;stroke-width:2px"/><path d="M823.24,325.08s-17.45,12.19-8.83,26.43C814.41,351.51,826.3,330.61,823.24,325.08Z" style="fill:none;stroke:#0d0e1f;stroke-miterlimit:10;stroke-width:2px"/><path d="M819.39,323.58s-15.13,19.79-23.53,20.21C795.86,343.79,800.71,323.91,819.39,323.58Z" style="fill:none;stroke:#0d0e1f;stroke-miterlimit:10;stroke-width:2px"/><path d="M820,319.93s-16.16,7.58-22.1,6.16C797.87,326.09,806.19,314.67,820,319.93Z" style="fill:none;stroke:#0d0e1f;stroke-miterlimit:10;stroke-width:2px"/><path d="M827.58,314.75s.14-16.09,13.34-20.37C840.92,294.38,836,308.31,827.58,314.75Z" style="fill:none;stroke:#0d0e1f;stroke-miterlimit:10;stroke-width:2px"/><path d="M830.12,320.42S844,309.18,860.23,324C860.23,324,841,327.07,830.12,320.42Z" style="fill:none;stroke:#0d0e1f;stroke-miterlimit:10;stroke-width:2px"/><path d="M849.75,317.15c3.28-.11,12.22-5.7,12.22-5.7-16.91-7.54-31.85,5.7-31.85,5.7l2.18,1.39" style="fill:none;stroke:#0d0e1f;stroke-miterlimit:10;stroke-width:2px"/><path d="M891.65,257.14s.73.41,1.94,1.14c5,3,17.94,11.29,21.19,18.39,0,0-5.79-11.89-11.57-14.84A80,80,0,0,0,891.65,257.14Z" style="fill:none;stroke:#0d0e1f;stroke-miterlimit:10;stroke-width:2px"/><path d="M894.24,258s13.06.33,16.23,1.42,12.6,9.39,17.29,10.31c0,0-8.1-3.47-16.46-6.63C904.21,260.43,896.94,258,894.24,258Z" style="fill:none;stroke:#0d0e1f;stroke-miterlimit:10;stroke-width:2px"/><path d="M913.58,268l-2.93-5.13Z" style="fill:none;stroke:#0d0e1f;stroke-miterlimit:10;stroke-width:2px"/><line x1="903.21" y1="260.21" x2="913.58" y2="268" style="fill:none;stroke:#0d0e1f;stroke-miterlimit:10;stroke-width:2px"/><path d="M867.74,245.9c3.91-.11,17.76,7.26,17.76,7.26s-7.38-6.16-9.24-6.22S867.74,245.9,867.74,245.9Z" style="fill:none;stroke:#0d0e1f;stroke-miterlimit:10;stroke-width:2px"/><path d="M885.5,254.16c-3.72-7.53.75-3.82-4.82-7.11-1.85-1.09-12.39-4.61-12.39-4.61" style="fill:none;stroke:#0d0e1f;stroke-miterlimit:10;stroke-width:2px"/><line x1="868.29" y1="243.5" x2="874.55" y2="246.8" style="fill:none;stroke:#0d0e1f;stroke-miterlimit:10;stroke-width:2px"/><path d="M824.48,276s.95-9.09-2.69-12-5.76-2.83-5.76-2.83l-.88,3.22S819.82,273.22,824.48,276Z" style="fill:#0d0e1f;stroke:#0d0e1f;stroke-miterlimit:10;stroke-width:2px"/><path d="M839.1,264.2c-15.78-.73-11.06,11.34-11.06,11.34s6.69,1,9.9-2.62S839.1,264.2,839.1,264.2Z" style="fill:#0d0e1f;stroke:#0d0e1f;stroke-miterlimit:10;stroke-width:2px"/><path d="M832.77,279.54s14.55-7.42,24.44-4.58,19.69,6.33,19.69,6.33Z" style="fill:#0d0e1f;stroke:#0d0e1f;stroke-miterlimit:10;stroke-width:2px"/><path d="M832.41,283.83s22,.51,33.31,10.84,12,13.75,12,13.75Z" style="fill:none;stroke:#0d0e1f;stroke-miterlimit:10;stroke-width:2px"/><path d="M858.58,298l2.63,3.84s-7.86-1.74-9.89-2.4-21.2-15.64-21.2-15.64l-4-6" style="fill:#0d0e1f;stroke:#0d0e1f;stroke-miterlimit:10;stroke-width:2px"/><path d="M828.19,310s-6.47-17.67-2.11-25.81c0,0,8.58,6.43,8.58,13.76" style="fill:#0d0e1f;stroke:#0d0e1f;stroke-miterlimit:10;stroke-width:2px"/><path d="M887.17,302.6s-10.83,3.13-8.65,15.27C878.52,317.87,891,307.69,887.17,302.6Z" style="fill:#0d0e1f;stroke:#0d0e1f;stroke-miterlimit:10;stroke-width:2px"/><path d="M890.88,303s-6.25,10.61,6.48,20.07C897.36,323.11,900.05,306.38,890.88,303Z" style="fill:#0d0e1f;stroke:#0d0e1f;stroke-miterlimit:10;stroke-width:2px"/><path d="M895,301.36s11.35,10,26.91,9.68C921.94,311,915,294.82,895,301.36Z" style="fill:#0d0e1f;stroke:#0d0e1f;stroke-miterlimit:10;stroke-width:2px"/><path d="M900.18,300.11l-3.11-1.58s16.07-11.86,34.47-1.39c0,0-7.83,5.16-21.08,3.67" style="fill:#0d0e1f;stroke:#0d0e1f;stroke-miterlimit:10;stroke-width:2px"/><path d="M894.24,295.62s3.48-16.29,24.35-16.88C918.59,278.74,910.11,294.09,894.24,295.62Z" style="fill:#0d0e1f;stroke:#0d0e1f;stroke-miterlimit:10;stroke-width:2px"/><path d="M894.24,294.38l-3.79,1.75s-1.38-11.42,2.76-13.46,5.09-3.49,5.09-3.49,1.53,4.35.8,7.63" style="fill:#0d0e1f;stroke:#0d0e1f;stroke-miterlimit:10;stroke-width:2px"/><path d="M886.74,296.13s-10.91-5-11.71-13.46C875,282.67,888.41,285.43,886.74,296.13Z" style="fill:#0d0e1f;stroke:#0d0e1f;stroke-miterlimit:10;stroke-width:2px"/><path d="M879.68,319.76s-15.56,4.22-12.36,32.59C867.32,352.35,890,343.47,879.68,319.76Z" style="fill:none;stroke:#0d0e1f;stroke-miterlimit:10;stroke-width:2px"/><path d="M885.5,319.76s8.44,13.13,10,17.62,3.27,13.95,7.67,17.44c0,0,2.58-11.67,0-16.52S885.5,319.76,885.5,319.76Z" style="fill:none;stroke:#0d0e1f;stroke-miterlimit:10;stroke-width:2px"/><path d="M897.73,320.53s6.1,4,11.63,7.23,10.91,17.31,10.91,17.31-4.37-3.63-10.33-9-20.59-17.52-20.59-17.52h3.26" style="fill:none;stroke:#0d0e1f;stroke-miterlimit:10;stroke-width:2px"/><path d="M887.39,314.16l3.78,2.18Z" style="fill:none;stroke:#0d0e1f;stroke-miterlimit:10;stroke-width:2px"/><polyline points="889.72 312.6 887.39 314.16 883.7 312.81" style="fill:none;stroke:#0d0e1f;stroke-miterlimit:10;stroke-width:2px"/><path d="M897.25,312.21s7.53,1.81,15.24,9.23c0,0-11-1-14.76-2.9" style="fill:none;stroke:#0d0e1f;stroke-miterlimit:10;stroke-width:2px"/><path d="M875.32,311s-12.58-17.1-36.73-8.44C838.59,302.6,852.34,313,875.32,311Z" style="fill:none;stroke:#0d0e1f;stroke-miterlimit:10;stroke-width:2px"/><path d="M878.66,308.42s-3.78-21.75-18-24.88c0,0,8.25,13.12,12.32,18.33" style="fill:none;stroke:#0d0e1f;stroke-miterlimit:10;stroke-width:2px"/><path d="M852.7,114.33s-7.23,12.22,6,21.5C858.74,135.83,865.35,117.61,852.7,114.33Z" style="fill:#0d0e1f;stroke:#0d0e1f;stroke-miterlimit:10;stroke-width:2px"/><path d="M862.52,98.73s1.09-31.2,24-46,30.33-17.78,30.33-17.78L898.31,60.35" style="fill:#0d0e1f;stroke:#0d0e1f;stroke-miterlimit:10;stroke-width:2px"/><path d="M853.57,101.4c.66,5.93-2.84,8.46-2.84,8.46s10.48-6.22,11.79-11.13" style="fill:none;stroke:#0d0e1f;stroke-linejoin:round;stroke-width:2px"/><path d="M863.39,101.4c-4.25,4.95-12.66,8.46-12.66,8.46a29.62,29.62,0,0,0,6.77,1.53" style="fill:none;stroke:#0d0e1f;stroke-linejoin:round;stroke-width:2px"/><polyline points="852.7 114.33 850.73 109.86 848.99 108.32" style="fill:none;stroke:#0d0e1f;stroke-linejoin:round;stroke-width:2px"/><path d="M850.73,109.86s-31.52,18.33-41,69.62" style="fill:none;stroke:#0d0e1f;stroke-linejoin:round;stroke-width:2px"/><path d="M814.66,179.48s14.27-28.6,26.63-30.34" style="fill:none;stroke:#0d0e1f;stroke-miterlimit:10;stroke-width:2px"/><path d="M836.65,150.91s-1.48-3.4,4.64-4.86" style="fill:none;stroke:#0d0e1f;stroke-miterlimit:10;stroke-width:2px"/><polyline points="857.5 175.75 866.55 179.48 869.28 175.75 866.55 179.48 870.59 183.68 866.55 179.48 869.28 191.76" style="fill:none;stroke:#0d0e1f;stroke-linejoin:round;stroke-width:2px"/><path d="M866.55,179.48l-2.24,8.71Z" style="fill:none;stroke:#0d0e1f;stroke-linejoin:round;stroke-width:2px"/><line x1="858.74" y1="182.45" x2="866.55" y2="179.48" style="fill:none;stroke:#0d0e1f;stroke-linejoin:round;stroke-width:2px"/><path d="M772,186.52s9.82-2.86,10.91-5.56a42.46,42.46,0,0,1-8.34-.84" style="fill:none;stroke:#0d0e1f;stroke-miterlimit:10;stroke-width:2px"/><path d="M783.86,197.87s1.53-13.55-1-16.91c0,0-3.81,11.27-8.34,14.87" style="fill:none;stroke:#0d0e1f;stroke-miterlimit:10;stroke-width:2px"/><path d="M794.86,183.68s-11.11-1.55-12-2.72c-1.69-2.26,11.11,10.8,11.11,10.8" style="fill:none;stroke:#0d0e1f;stroke-miterlimit:10;stroke-width:2px"/><path d="M782.88,181l7.72-6.08Z" style="fill:none;stroke:#0d0e1f;stroke-miterlimit:10;stroke-width:2px"/><path d="M782.88,181s1.85-15.5,13.31,2.8" style="fill:none;stroke:#0d0e1f;stroke-miterlimit:10;stroke-width:2px"/><path d="M756.2,140.74l8.24-6.5-1.64-.81c-2.48,5.23-10.47,4.8-10.47,4.8" style="fill:none;stroke:#0d0e1f;stroke-miterlimit:10;stroke-width:2px"/><path d="M765,139.32l-.55-5.08s34.68,17.67,38.87,46.14" style="fill:none;stroke:#0d0e1f;stroke-miterlimit:10;stroke-width:2px"/><path d="M787.46,93.93l10.91,9.4s-4.66-9.72-5.24-14.83" style="fill:none;stroke:#0d0e1f;stroke-linejoin:round;stroke-width:2px"/><polyline points="792.26 108.33 798.37 103.33 785.93 103.1" style="fill:none;stroke:#0d0e1f;stroke-linejoin:round;stroke-width:2px"/><path d="M805.13,100.7l-6.76,2.63c.58-4.78,4.27-12.89,4.27-12.89" style="fill:none;stroke:#0d0e1f;stroke-linejoin:round;stroke-width:2px"/><path d="M805.13,106.59l-6.76-3.26s16,42.86,8.53,77.05" style="fill:none;stroke:#0d0e1f;stroke-linejoin:round;stroke-width:2px"/><path d="M885.28,253.05c-5,3.84-23.13,16.93-21.34,56.42" style="fill:none;stroke:#0d0e1f;stroke-miterlimit:10;stroke-width:2px"/><path d="M890.23,297.8l-3.06,4.8Z" style="fill:none;stroke:#0d0e1f;stroke-miterlimit:10;stroke-width:2px"/><path d="M890.88,303l-.65-5.24,4.8,3.56-4.8-3.56,6.84.73-6.84-.73,4-2.18-4,2.18.22-1.67-.22,1.67-3.49-1.67,3.49,1.67s-21.3,6.46-26,12.65" style="fill:none;stroke:#0d0e1f;stroke-miterlimit:10;stroke-width:2px"/><polyline points="885.5 319.76 883.7 312.81 889.35 318.54" style="fill:none;stroke:#0d0e1f;stroke-miterlimit:10;stroke-width:2px"/><line x1="879.68" y1="319.76" x2="881.39" y2="315.25" style="fill:none;stroke:#0d0e1f;stroke-miterlimit:10;stroke-width:2px"/><path d="M878.23,313.07s-18.43,12.64-24.73,21.17" style="fill:none;stroke:#0d0e1f;stroke-miterlimit:10;stroke-width:2px"/><path d="M824.11,318.89l-4.14,1Z" style="fill:none;stroke:#0d0e1f;stroke-linejoin:round;stroke-width:2px"/><polyline points="819.39 323.58 824.11 318.89 823.24 325.08" style="fill:none;stroke:#0d0e1f;stroke-linejoin:round;stroke-width:2px"/><polyline points="830.12 320.42 824.11 318.89 828.04 324.02" style="fill:none;stroke:#0d0e1f;stroke-linejoin:round;stroke-width:2px"/><line x1="830.12" y1="317.15" x2="824.11" y2="318.89" style="fill:none;stroke:#0d0e1f;stroke-linejoin:round;stroke-width:2px"/><line x1="827.58" y1="314.75" x2="824.57" y2="318.89" style="fill:none;stroke:#0d0e1f;stroke-linejoin:round;stroke-width:2px"/><path d="M824.48,276l1.59,1.82s-11.67,2.83-14.06,6" style="fill:none;stroke:#0d0e1f;stroke-miterlimit:10;stroke-width:2px"/><path d="M826.07,277.8l2-2.26Z" style="fill:none;stroke:#0d0e1f;stroke-miterlimit:10;stroke-width:2px"/><path d="M831.46,283.83l-5.39-6s2,2,6.7,1.74" style="fill:none;stroke:#0d0e1f;stroke-miterlimit:10;stroke-width:2px"/><line x1="826.08" y1="284.2" x2="826.07" y2="277.8" style="fill:none;stroke:#0d0e1f;stroke-miterlimit:10;stroke-width:2px"/><path d="M779.12,334.33c1.23,2.38,2.49,4.88,3.48,7" style="fill:none;stroke:#0d0e1f;stroke-miterlimit:10;stroke-width:3px"/><path d="M774.73,325a.86.86,0,0,0-.08,1c.68,1.26,2.54,4.67,4.47,8.38" style="fill:none;stroke:#0d0e1f;stroke-miterlimit:10;stroke-width:3px"/><path d="M793.92,335.89c-1,7.95-1.25,15.72.07,22.11,3.94,19.15,12.17,53.41,14.06,68.46,1.38,11.06,1.75,24.36,3.66,32.45" style="fill:none;stroke:#0d0e1f;stroke-miterlimit:10;stroke-width:3px"/><path d="M844.11,340.82c2.89-2.87,10.94-12.07,13.17-17.13,1.88-4.27,4.3-11.08,5.26-13.84a.88.88,0,0,1,1.4-.38h0a.9.9,0,0,1,.26,1c-1.17,3.13-6.78,18.06-9.25,21.62-2.76,4-8,11.95-10.18,25.93-2,12.56-2.76,38.57-4.22,53.26-1.1,11.15-3.46,32.44-8.1,47.65" style="fill:none;stroke:#0d0e1f;stroke-miterlimit:10;stroke-width:3px"/><path d="M818.5,458.91a36.27,36.27,0,0,0,3.09-7.79c1.87-7.42,12-33.4,12.78-36.22,1.31-4.58,5-43,5.46-52.15a134.72,134.72,0,0,1,1.29-14" style="fill:none;stroke:#0d0e1f;stroke-miterlimit:10;stroke-width:3px"/><path d="M821,485.49a74.49,74.49,0,0,0-2.69,19.74c0,6.25-.13,12.77-.13,12.77" style="fill:none;stroke:#0d0e1f;stroke-miterlimit:10;stroke-width:3px"/><path d="M800,458.91c-.76-9.46-3.61-43.77-6-55.58-2.82-13.74-7.84-53.6-10.24-59.42-.31-.75-.71-1.63-1.15-2.57" style="fill:none;stroke:#0d0e1f;stroke-miterlimit:10;stroke-width:3px"/><line x1="804.93" y1="485.49" x2="804.93" y2="519.18" style="fill:none;stroke:#0d0e1f;stroke-miterlimit:10;stroke-width:3px"/><path d="M803.67,282.34c.46-1,.88-1.95,1.26-2.72,5.44-11.13,6.09-29,4.79-37.75-1.17-7.75-5.51-31.65-6.47-36.93a.88.88,0,0,1,.87-1h1.93a.88.88,0,0,1,.87.77c.56,4.22,3.42,24.79,6.94,30.65a87.89,87.89,0,0,1,5.78,11.3.77.77,0,0,1,0,.54c-.64,2.55-5.57,22-10.14,36.42" style="fill:none;stroke:#0d0e1f;stroke-miterlimit:10;stroke-width:3px"/><path d="M793.92,335.89c.14-1.12.31-2.24.49-3.37" style="fill:none;stroke:#0d0e1f;stroke-miterlimit:10;stroke-width:2px"/><line x1="775.9" y1="323.5" x2="774.73" y2="324.99" style="fill:none;stroke:#0d0e1f;stroke-miterlimit:10;stroke-width:2px"/><path d="M794.41,332.52A166.69,166.69,0,0,1,802.15,303" style="fill:none;stroke:#0d0e1f;stroke-miterlimit:10;stroke-width:3px"/><path d="M805.17,295.61c.9-2,1.91-4.64,3-7.73" style="fill:none;stroke:#0d0e1f;stroke-miterlimit:10;stroke-width:2px"/><path d="M790.21,317.65c1.62-4.51,3.5-9.69,5.41-14.84" style="fill:none;stroke:#0d0e1f;stroke-miterlimit:10;stroke-width:3px"/><path d="M800,291.34c-.2.51-.39,1-.6,1.54" style="fill:none;stroke:#0d0e1f;stroke-miterlimit:10;stroke-width:2px"/><path d="M757.32,296.18c-23.7-6.92-29.5,8.46-29.5,8.46,12.09-.67,27.56-6.91,30.16-8" style="fill:none;stroke:#0d0e1f;stroke-miterlimit:10;stroke-width:2px"/><path d="M757.32,296.18l1,.31" style="fill:none;stroke:#0d0e1f;stroke-miterlimit:10;stroke-width:2px"/><path d="M758,296.65l.39-.16" style="fill:none;stroke:#0d0e1f;stroke-miterlimit:10;stroke-width:2px"/><path d="M767.71,290.09c14.73-15.6,16.15-25.42,16.15-25.42-19,8.95-16.15,25.42-16.15,25.42" style="fill:none;stroke:#0d0e1f;stroke-miterlimit:10;stroke-width:2px"/><path d="M727.69,325.81c-.19.45-.38.9-.56,1.37,0,0,.54-.29,1.48-.85" style="fill:none;stroke:#0d0e1f;stroke-miterlimit:10;stroke-width:2px"/><path d="M758.37,300.14s-20.83,1.79-30.68,25.67" style="fill:none;stroke:#0d0e1f;stroke-miterlimit:10;stroke-width:2px"/><path d="M758.37,300.14c-9.72,13.68-25,23.37-29.76,26.19" style="fill:none;stroke:#0d0e1f;stroke-miterlimit:10;stroke-width:2px"/><path d="M760.76,322a84.54,84.54,0,0,1-5.26,13.08" style="fill:none;stroke:#0d0e1f;stroke-miterlimit:10;stroke-width:2px"/><path d="M760.76,322a60.94,60.94,0,0,0,2.92-19.71" style="fill:none;stroke:#0d0e1f;stroke-miterlimit:10;stroke-width:2px"/><path d="M753.31,336c.28.5.56,1,.87,1.53,0,0,.52-.89,1.32-2.45" style="fill:none;stroke:#0d0e1f;stroke-miterlimit:10;stroke-width:2px"/><path d="M750.3,326.92c-1.74-15.06,13.38-24.61,13.38-24.61" style="fill:none;stroke:#0d0e1f;stroke-miterlimit:10;stroke-width:2px"/><path d="M750.3,326.92a25,25,0,0,0,3,9.1" style="fill:none;stroke:#0d0e1f;stroke-miterlimit:10;stroke-width:2px"/><path d="M793.92,335.89l1,.46s-.11-1.49-.47-3.83" style="fill:none;stroke:#0d0e1f;stroke-miterlimit:10;stroke-width:2px"/><path d="M794.41,332.52a61.94,61.94,0,0,0-4.2-14.87" style="fill:none;stroke:#0d0e1f;stroke-miterlimit:10;stroke-width:2px"/><path d="M768.55,306.67c0,4.1,1.24,10.26,7.35,16.83" style="fill:none;stroke:#0d0e1f;stroke-miterlimit:10;stroke-width:2px"/><path d="M793.92,335.89c-8.47-4-14.19-8.28-18-12.39" style="fill:none;stroke:#0d0e1f;stroke-miterlimit:10;stroke-width:2px"/><path d="M769.35,301.65a14.77,14.77,0,0,0-.8,5" style="fill:none;stroke:#0d0e1f;stroke-miterlimit:10;stroke-width:2px"/><path d="M769.35,301.65c11,0,17.26,7.8,20.86,16" style="fill:none;stroke:#0d0e1f;stroke-miterlimit:10;stroke-width:2px"/><path d="M800,291.34a49.5,49.5,0,0,0,8.15-3.46" style="fill:none;stroke:#0d0e1f;stroke-miterlimit:10;stroke-width:2px"/><path d="M800,291.34c-1,.31-2,.61-3,.89" style="fill:none;stroke:#0d0e1f;stroke-miterlimit:10;stroke-width:2px"/><path d="M797,292.23a62.41,62.41,0,0,1-18.85,1.89" style="fill:none;stroke:#0d0e1f;stroke-miterlimit:10;stroke-width:2px"/><path d="M803.67,282.34c-22.77-3.49-31.7,11.24-31.7,11.24" style="fill:none;stroke:#0d0e1f;stroke-miterlimit:10;stroke-width:2px"/><path d="M772,293.58c2.13.28,4.18.45,6.15.54" style="fill:none;stroke:#0d0e1f;stroke-miterlimit:10;stroke-width:2px"/><path d="M803.67,282.34a57.84,57.84,0,0,1,5.87,1.24" style="fill:none;stroke:#0d0e1f;stroke-miterlimit:10;stroke-width:2px"/><path d="M808.13,287.88a29.52,29.52,0,0,0,5-3.25c-1.22-.4-2.4-.74-3.56-1.05" style="fill:none;stroke:#0d0e1f;stroke-miterlimit:10;stroke-width:2px"/><path d="M805.17,295.61a22.61,22.61,0,0,1,6.84,6.7c-3.53.39-6.81.59-9.86.64" style="fill:none;stroke:#0d0e1f;stroke-miterlimit:10;stroke-width:2px"/><path d="M772,296.74a58,58,0,0,1,6.15-2.62" style="fill:none;stroke:#0d0e1f;stroke-miterlimit:10;stroke-width:2px"/><path d="M797,292.23a22.82,22.82,0,0,1,2.41.65" style="fill:none;stroke:#0d0e1f;stroke-miterlimit:10;stroke-width:2px"/><path d="M805.17,295.61a24.33,24.33,0,0,0-5.79-2.73" style="fill:none;stroke:#0d0e1f;stroke-miterlimit:10;stroke-width:2px"/><path d="M795.62,302.81c-16-.94-23.65-6.07-23.65-6.07" style="fill:none;stroke:#0d0e1f;stroke-miterlimit:10;stroke-width:2px"/><path d="M802.15,303c-2.31,0-4.49,0-6.53-.14" style="fill:none;stroke:#0d0e1f;stroke-miterlimit:10;stroke-width:2px"/><line x1="763.71" y1="294.38" x2="758.37" y2="296.49" style="fill:none;stroke:#0d0e1f;stroke-miterlimit:10;stroke-width:2px"/><line x1="758.37" y1="300.14" x2="760.14" y2="298.23" style="fill:none;stroke:#0d0e1f;stroke-miterlimit:10;stroke-width:2px"/><line x1="763.71" y1="294.38" x2="760.14" y2="298.23" style="fill:none;stroke:#0d0e1f;stroke-miterlimit:10;stroke-width:2px"/><line x1="763.71" y1="294.38" x2="767.71" y2="290.09" style="fill:none;stroke:#0d0e1f;stroke-miterlimit:10;stroke-width:2px"/><line x1="763.71" y1="294.38" x2="763.68" y2="301.11" style="fill:none;stroke:#0d0e1f;stroke-miterlimit:10;stroke-width:2px"/><line x1="769.35" y1="301.65" x2="763.71" y2="294.38" style="fill:none;stroke:#0d0e1f;stroke-miterlimit:10;stroke-width:2px"/><line x1="763.68" y1="301.11" x2="763.68" y2="302.31" style="fill:none;stroke:#0d0e1f;stroke-miterlimit:10;stroke-width:2px"/><line x1="771.97" y1="293.58" x2="763.71" y2="294.38" style="fill:none;stroke:#0d0e1f;stroke-miterlimit:10;stroke-width:2px"/><line x1="763.71" y1="294.38" x2="771.97" y2="296.74" style="fill:none;stroke:#0d0e1f;stroke-miterlimit:10;stroke-width:2px"/><path d="M748.18,341.87s-3,21.68,26.36,31c0,0-6.28-24.59-26.36-31" style="fill:#0d0e1f;stroke:#0d0e1f;stroke-miterlimit:10;stroke-width:2px"/><path d="M739.46,345.32s-9.44,5.21-15.41,17.5" style="fill:#0d0e1f;stroke:#0d0e1f;stroke-miterlimit:10;stroke-width:2px"/><path d="M724.05,384.23c5.36-9.66,13.93-26.61,15.41-38.91" style="fill:#0d0e1f;stroke:#0d0e1f;stroke-miterlimit:10;stroke-width:2px"/><path d="M745.71,346.09S731,372.28,756.18,399c0,0,.44-39.86-10.47-53" style="fill:#0d0e1f;stroke:#0d0e1f;stroke-miterlimit:10;stroke-width:2px"/><path d="M737.71,340.42a87.45,87.45,0,0,1-13.66,11.06" style="fill:#0d0e1f;stroke:#0d0e1f;stroke-miterlimit:10;stroke-width:2px"/><path d="M737.71,340.42a28.41,28.41,0,0,0-13.66.2" style="fill:none;stroke:#0d0e1f;stroke-miterlimit:10;stroke-width:2px"/><path d="M728.61,326.33c-.31-.19-.62-.36-.92-.52" style="fill:none;stroke:#0d0e1f;stroke-miterlimit:10;stroke-width:2px"/><path d="M724.05,324.36a16.36,16.36,0,0,1,3.64,1.45" style="fill:none;stroke:#0d0e1f;stroke-miterlimit:10;stroke-width:2px"/><path d="M737.71,334.46a38,38,0,0,0-9.1-8.13" style="fill:#0d0e1f;stroke:#0d0e1f;stroke-miterlimit:10;stroke-width:2px"/><path d="M737.71,334.46a20.7,20.7,0,0,1-13.66-.32" style="fill:#0d0e1f;stroke:#0d0e1f;stroke-miterlimit:10;stroke-width:2px"/><path d="M740.18,283a18.6,18.6,0,0,0,4.08-7c1.31-4.22,2.32-12.66,2.32-12.66S723,273.8,740.18,283" style="fill:#0d0e1f;stroke:#0d0e1f;stroke-miterlimit:10;stroke-width:2px"/><path d="M724.05,290.4a44.68,44.68,0,0,0,6.42-1.37" style="fill:none;stroke:#0d0e1f;stroke-miterlimit:10;stroke-width:2px"/><path d="M736.84,285.29s-2-10-9.71-4.51c-1.1.79-2.13,1.56-3.08,2.3" style="fill:#0d0e1f;stroke:#0d0e1f;stroke-miterlimit:10;stroke-width:2px"/><path d="M736.84,285.29c-1.17,1.69-3.58,2.89-6.37,3.74" style="fill:#0d0e1f;stroke:#0d0e1f;stroke-miterlimit:10;stroke-width:2px"/><path d="M734.62,291.62c2.08-3.19,3.82-5.89,3.82-5.89" style="fill:#0d0e1f;stroke:#0d0e1f;stroke-miterlimit:10;stroke-width:2px"/><path d="M734.62,291.62c-2.7,4.13-6,9.09-6.8,10" style="fill:none;stroke:#0d0e1f;stroke-miterlimit:10;stroke-width:2px"/><path d="M743.09,287.63c-5.39,5-15.11,14.11-15.33,14.12" style="fill:#0d0e1f;stroke:#0d0e1f;stroke-miterlimit:10;stroke-width:2px"/><path d="M727.82,301.65c-.06.08-.07.1-.06.1" style="fill:none;stroke:#0d0e1f;stroke-miterlimit:10;stroke-width:2px"/><path d="M743.09,287.63c1.93-1.79,3.31-3.07,3.49-3.21.73-.59-8.14,1.31-8.14,1.31" style="fill:#0d0e1f;stroke:#0d0e1f;stroke-miterlimit:10;stroke-width:2px"/><path d="M770,267a38.67,38.67,0,0,0-25.89,17.35C748.39,283.18,770,267,770,267Z" style="fill:#0d0e1f;stroke:#0d0e1f;stroke-miterlimit:10;stroke-width:2px"/><path d="M724.05,296a43.89,43.89,0,0,1,6.53-4" style="fill:none;stroke:#0d0e1f;stroke-miterlimit:10;stroke-width:2px"/><path d="M730.58,292c.82-.25,1.31-.38,1.31-.38a3.72,3.72,0,0,0-1.31.38" style="fill:none;stroke:#0d0e1f;stroke-miterlimit:10;stroke-width:2px"/><path d="M724.05,294.15c2.73-1,5.13-1.74,6.53-2.15" style="fill:none;stroke:#0d0e1f;stroke-miterlimit:10;stroke-width:2px"/><path d="M724.05,291.56c4-1.46,6.42-2.53,6.42-2.53" style="fill:#0d0e1f;stroke:#0d0e1f;stroke-miterlimit:10;stroke-width:2px"/><path d="M729.35,374.11c-3.56,10.43,7.49,31.48,7.49,31.48s1.89-5.68,0-15.86-1.19-30.05-1.19-30.05" style="fill:none;stroke:#0d0e1f;stroke-miterlimit:10;stroke-width:2px"/><path d="M783.86,197.87s-18.63,51.78,14,82.62C797.87,280.49,815.17,220.56,783.86,197.87Z" style="fill:#0d0e1f;stroke:#0d0e1f;stroke-miterlimit:10;stroke-width:2px"/><path d="M737.06,239.72a83.35,83.35,0,0,0-2.44,18.37s35.73-30,39.92-62.26c0,0-16.49,5.34-28.28,22.91" style="fill:#0d0e1f;stroke:#0d0e1f;stroke-miterlimit:10;stroke-width:2px"/><path d="M737.06,239.72a66.67,66.67,0,0,1,9.2-21" style="fill:none;stroke:#0d0e1f;stroke-miterlimit:10;stroke-width:2px"/><path d="M721.69,209.07s-15,12.65-13,49c0,0,16.5-32.79,21.78-51.13" style="fill:none;stroke:#0d0e1f;stroke-miterlimit:10;stroke-width:2px"/><path d="M739.42,203.9S715.38,228.56,726,260c0,0,5.38-8.88,11.06-20.26" style="fill:none;stroke:#0d0e1f;stroke-miterlimit:10;stroke-width:2px"/><path d="M737.06,239.72a198.53,198.53,0,0,0,9.2-21" style="fill:none;stroke:#0d0e1f;stroke-miterlimit:10;stroke-width:2px"/><path d="M746.26,218.74c2.68-7.47,4.38-14.48,3.89-19.54" style="fill:none;stroke:#0d0e1f;stroke-miterlimit:10;stroke-width:2px"/><line x1="737.71" y1="340.42" x2="742.4" y2="336.24" style="fill:none;stroke:#0d0e1f;stroke-miterlimit:10;stroke-width:2px"/><line x1="737.71" y1="334.46" x2="742.4" y2="336.24" style="fill:none;stroke:#0d0e1f;stroke-miterlimit:10;stroke-width:2px"/><line x1="739.46" y1="345.32" x2="742.4" y2="336.24" style="fill:none;stroke:#0d0e1f;stroke-miterlimit:10;stroke-width:2px"/><line x1="742.4" y1="336.24" x2="748.18" y2="341.87" style="fill:none;stroke:#0d0e1f;stroke-miterlimit:10;stroke-width:2px"/><line x1="742.4" y1="336.24" x2="745.71" y2="346.09" style="fill:none;stroke:#0d0e1f;stroke-miterlimit:10;stroke-width:2px"/><path d="M750.3,326.92a34.82,34.82,0,0,0-7.9,9.32" style="fill:none;stroke:#0d0e1f;stroke-miterlimit:10;stroke-width:2px"/><path d="M774.73,325c-5.22-2.95-9.9-3.6-14-3" style="fill:none;stroke:#0d0e1f;stroke-miterlimit:10;stroke-width:2px"/><path d="M742.4,336.24l7.75,1.31s19.83-6.94,33.71,3.07c0,0-17.62,13-33.71-3.07" style="fill:#0d0e1f;stroke:#0d0e1f;stroke-miterlimit:10;stroke-width:2px"/><line x1="727.82" y1="301.65" x2="727.76" y2="301.75" style="fill:none;stroke:#0d0e1f;stroke-miterlimit:10;stroke-width:2px"/><line x1="727.82" y1="301.65" x2="724.05" y2="305.65" style="fill:none;stroke:#0d0e1f;stroke-miterlimit:10;stroke-width:2px"/><line x1="724.05" y1="307.61" x2="727.76" y2="301.75" style="fill:none;stroke:#0d0e1f;stroke-miterlimit:10;stroke-width:2px"/><path d="M734.62,291.62s-6.85,1.22-10.57,7" style="fill:none;stroke:#0d0e1f;stroke-miterlimit:10;stroke-width:2px"/><line x1="740.18" y1="282.96" x2="740.25" y2="285.11" style="fill:none;stroke:#0d0e1f;stroke-miterlimit:10;stroke-width:2px"/><line x1="736.84" y1="285.29" x2="738.44" y2="285.73" style="fill:none;stroke:#0d0e1f;stroke-miterlimit:10;stroke-width:2px"/><path d="M757.32,296.18l.66.47" style="fill:none;stroke:#0d0e1f;stroke-miterlimit:10;stroke-width:2px"/><path d="M768.55,306.67a23.5,23.5,0,0,0-4.87-5.56" style="fill:none;stroke:#0d0e1f;stroke-miterlimit:10;stroke-width:2px"/><path d="M758,296.65c.73.52,1.45,1,2.16,1.58" style="fill:none;stroke:#0d0e1f;stroke-miterlimit:10;stroke-width:2px"/><path d="M757.32,296.18a146.6,146.6,0,0,0-14.23-8.55" style="fill:none;stroke:#0d0e1f;stroke-miterlimit:10;stroke-width:2px"/><path d="M763.68,301.11c-1.1-1-2.29-1.94-3.54-2.88" style="fill:none;stroke:#0d0e1f;stroke-miterlimit:10;stroke-width:2px"/><line x1="724.05" y1="362.82" x2="724.05" y2="384.23" style="fill:none;stroke:#0d0e1f;stroke-miterlimit:10;stroke-width:2px"/><line x1="724.05" y1="340.62" x2="724.05" y2="351.48" style="fill:none;stroke:#0d0e1f;stroke-miterlimit:10;stroke-width:2px"/><line x1="724.05" y1="305.65" x2="724.05" y2="307.61" style="fill:none;stroke:#0d0e1f;stroke-miterlimit:10;stroke-width:2px"/><line x1="724.05" y1="324.36" x2="724.05" y2="334.14" style="fill:none;stroke:#0d0e1f;stroke-miterlimit:10;stroke-width:2px"/><line x1="724.05" y1="351.48" x2="724.05" y2="362.82" style="fill:none;stroke:#0d0e1f;stroke-miterlimit:10;stroke-width:2px"/><line x1="724.05" y1="291.56" x2="724.05" y2="294.15" style="fill:none;stroke:#0d0e1f;stroke-miterlimit:10;stroke-width:2px"/><line x1="724.05" y1="283.08" x2="724.05" y2="290.4" style="fill:none;stroke:#0d0e1f;stroke-miterlimit:10;stroke-width:2px"/><line x1="724.05" y1="296.02" x2="724.05" y2="298.64" style="fill:none;stroke:#0d0e1f;stroke-miterlimit:10;stroke-width:2px"/><line x1="724.05" y1="298.64" x2="724.05" y2="305.65" style="fill:none;stroke:#0d0e1f;stroke-miterlimit:10;stroke-width:2px"/><line x1="724.05" y1="290.4" x2="724.05" y2="291.56" style="fill:none;stroke:#0d0e1f;stroke-miterlimit:10;stroke-width:2px"/><line x1="724.05" y1="307.61" x2="724.05" y2="324.36" style="fill:none;stroke:#0d0e1f;stroke-miterlimit:10;stroke-width:2px"/><line x1="724.05" y1="334.14" x2="724.05" y2="340.62" style="fill:none;stroke:#0d0e1f;stroke-miterlimit:10;stroke-width:2px"/><line x1="724.05" y1="294.15" x2="724.05" y2="296.02" style="fill:none;stroke:#0d0e1f;stroke-miterlimit:10;stroke-width:2px"/><line x1="818.5" y1="458.91" x2="811.71" y2="458.91" style="fill:none;stroke:#0d0e1f;stroke-miterlimit:10;stroke-width:2px"/><line x1="818.5" y1="458.91" x2="832.45" y2="458.91" style="fill:none;stroke:#0d0e1f;stroke-miterlimit:10;stroke-width:2px"/><line x1="800.02" y1="458.91" x2="811.71" y2="458.91" style="fill:none;stroke:#0d0e1f;stroke-miterlimit:10;stroke-width:2px"/><line x1="820.99" y1="485.49" x2="804.93" y2="485.49" style="fill:none;stroke:#0d0e1f;stroke-miterlimit:10;stroke-width:2px"/><path d="M860.83,650a15.71,15.71,0,0,0,4.31-10.81V530a4.21,4.21,0,0,0-4.21-4.21H850.35" style="fill:none;stroke:#0d0e1f;stroke-miterlimit:10;stroke-width:3px"/><path d="M779.46,525.74h-9.62a4.2,4.2,0,0,0-4.2,4.21V639.14c0,8.71,7.06,14.77,15.77,14.77H852.3" style="fill:none;stroke:#0d0e1f;stroke-miterlimit:10;stroke-width:3px"/><line x1="779.46" y1="525.74" x2="835.87" y2="525.74" style="fill:none;stroke:#0d0e1f;stroke-miterlimit:10;stroke-width:3px"/><path d="M853.35,525.74l-1.92-1.1a1.09,1.09,0,0,0-.23-.09l-1.33-.32" style="fill:none;stroke:#0d0e1f;stroke-miterlimit:10;stroke-width:2px"/><path d="M779.46,525.74l1.64-1.51a.87.87,0,0,1,.59-.24h1.23a.89.89,0,0,0,.73-.38l.35-.54a.87.87,0,0,1,.73-.38h2.56a.9.9,0,0,0,.56-.21l3.15-2.64a.83.83,0,0,1,.56-.21h2.27a.8.8,0,0,0,.34-.07l1.15-.48a.88.88,0,0,1,.82.08l.44.29a.84.84,0,0,0,1,0l3.38-2.25a.89.89,0,0,1,1,0l2.46,1.8a.89.89,0,0,0,.55.16l3.23-.13a.69.69,0,0,0,.2,0l7.41-2.06a.89.89,0,0,1,.66.08l3.46,1.91a.89.89,0,0,0,.88,0l3.14-1.93a.79.79,0,0,1,.45-.13h1.78a.81.81,0,0,1,.54.19l3.55,2.81a.85.85,0,0,0,.93.09l2.26-1.13a.88.88,0,0,1,.86,0l.77.48" style="fill:none;stroke:#0d0e1f;stroke-miterlimit:10;stroke-width:2px"/><line x1="850" y1="525.74" x2="860.83" y2="649.95" style="fill:none;stroke:#0d0e1f;stroke-miterlimit:10;stroke-width:2px"/><line x1="830.78" y1="485.33" x2="852.43" y2="654.89" style="fill:none;stroke:#0d0e1f;stroke-miterlimit:10;stroke-width:2px"/><line x1="849.87" y1="524.23" x2="850" y2="525.74" style="fill:none;stroke:#0d0e1f;stroke-miterlimit:10;stroke-width:2px"/><line x1="846.49" y1="485.49" x2="849.87" y2="524.23" style="fill:none;stroke:#0d0e1f;stroke-miterlimit:10;stroke-width:2px"/><line x1="835.87" y1="525.74" x2="835.05" y2="519.36" style="fill:none;stroke:#0d0e1f;stroke-miterlimit:10;stroke-width:2px"/><line x1="832.35" y1="498.6" x2="832.36" y2="498.6" style="fill:none;stroke:#0d0e1f;stroke-miterlimit:10;stroke-width:2px"/><polyline points="852.43 654.89 861.25 654.91 860.83 649.26" style="fill:none;stroke:#0d0e1f;stroke-miterlimit:10;stroke-width:2px"/><line x1="847.03" y1="498.6" x2="832.35" y2="498.6" style="fill:none;stroke:#0d0e1f;stroke-miterlimit:10;stroke-width:2px"/><path d="M719.52,433.59H500.65a4.53,4.53,0,0,1-4.52-4.52V280.54a4.53,4.53,0,0,1,4.52-4.52H719.52a4.54,4.54,0,0,1,4.53,4.52V429.07A4.54,4.54,0,0,1,719.52,433.59Z" style="fill:none;stroke:#0d0e1f;stroke-miterlimit:10;stroke-width:3px"/><rect x="505.97" y="285.86" width="208.22" height="137.7" style="fill:none;stroke:#0d0e1f;stroke-miterlimit:10;stroke-width:2px"/><rect x="572.1" y="451.04" width="75.97" height="7.87" style="fill:none;stroke:#0d0e1f;stroke-miterlimit:10;stroke-width:2px"/><rect x="592.32" y="433.59" width="35.54" height="17.45" style="fill:none;stroke:#0d0e1f;stroke-miterlimit:10;stroke-width:2px"/><path d="M408.31,458.91c4,4.46,8.07,8.87,12.1,13.15.82.87,1.68,1.73,2.56,2.58" style="fill:none;stroke:#0d0e1f;stroke-miterlimit:10;stroke-width:3px"/><path d="M423,474.64a122.87,122.87,0,0,0,12.47,10.49" style="fill:none;stroke:#0d0e1f;stroke-miterlimit:10;stroke-width:3px"/><path d="M325.88,382.29a25.06,25.06,0,0,1,4.76,1.4" style="fill:none;stroke:#0d0e1f;stroke-miterlimit:10;stroke-width:3px"/><path d="M435.44,485.13c41.37,30.81,112.23,54.57,107.46,101.51-4,30.85-18.61,52-38.92,67.06H312.51" style="fill:none;stroke:#0d0e1f;stroke-miterlimit:10;stroke-width:3px"/><path d="M271.5,443c-2-16.17-8.57-32.77,3.17-44.27,3-2.93,9.85-7.8,18.67-11.59" style="fill:none;stroke:#0d0e1f;stroke-miterlimit:10;stroke-width:3px"/><line x1="330.64" y1="383.69" x2="330.64" y2="383.69" style="fill:none;stroke:#0d0e1f;stroke-miterlimit:10;stroke-width:2px"/><path d="M272,452.63c-.07,1.27-.19,2.52-.38,3.77-.11.69-.24,1.54-.39,2.51" style="fill:none;stroke:#0d0e1f;stroke-miterlimit:10;stroke-width:3px"/><path d="M293.34,387.13c9.35-4,20.92-6.84,32.49-4.84h.05" style="fill:none;stroke:#0d0e1f;stroke-miterlimit:10;stroke-width:3px"/><path d="M398.1,447.51c-25.54-28.72-49.88-56.83-67.46-63.82" style="fill:none;stroke:#0d0e1f;stroke-miterlimit:10;stroke-width:3px"/><path d="M408.31,458.91c-1.66-1.83-3.32-3.68-5-5.53" style="fill:none;stroke:#0d0e1f;stroke-miterlimit:10;stroke-width:3px"/><path d="M398.1,447.51q2.61,2.94,5.24,5.87" style="fill:none;stroke:#0d0e1f;stroke-miterlimit:10;stroke-width:3px"/><path d="M268,485.13c-4.78,48.35-7.51,138.24,34.63,168.57h15.81" style="fill:none;stroke:#0d0e1f;stroke-miterlimit:10;stroke-width:3px"/><path d="M271.18,458.91c-.54,3.56-1.3,9-2.09,15.73" style="fill:none;stroke:#0d0e1f;stroke-miterlimit:10;stroke-width:3px"/><path d="M271.5,443a56.94,56.94,0,0,1,.45,9.64" style="fill:none;stroke:#0d0e1f;stroke-miterlimit:10;stroke-width:3px"/><path d="M268,485.13c.37-3.77.76-7.28,1.14-10.49" style="fill:none;stroke:#0d0e1f;stroke-miterlimit:10;stroke-width:2px"/><line x1="456.54" y1="654.7" x2="328.16" y2="654.7" style="fill:none;stroke:#0d0e1f;stroke-miterlimit:10;stroke-width:2px"/><line x1="472.51" y1="654.7" x2="456.54" y2="654.7" style="fill:none;stroke:#0d0e1f;stroke-miterlimit:10;stroke-width:2px"/><line x1="318.39" y1="654.7" x2="328.16" y2="654.7" style="fill:none;stroke:#0d0e1f;stroke-miterlimit:10;stroke-width:2px"/><path d="M352.65,458.91q-2.36-2.76-4.56-5.53" style="fill:none;stroke:#0d0e1f;stroke-miterlimit:10;stroke-width:2px"/><path d="M490.18,604.62c-.09-2.17-.29-4.34-.58-6.51" style="fill:none;stroke:#0d0e1f;stroke-miterlimit:10;stroke-width:2px"/><path d="M380.67,485.13c-3.95-2.89-7.63-5.87-11.09-8.93" style="fill:none;stroke:#0d0e1f;stroke-miterlimit:10;stroke-width:2px"/><path d="M369.58,476.2c-.59-.51-1.18-1-1.75-1.56" style="fill:none;stroke:#0d0e1f;stroke-miterlimit:10;stroke-width:2px"/><path d="M343.55,447.51c-4.66-6.23-8.88-12.41-12.91-18.37" style="fill:none;stroke:#0d0e1f;stroke-miterlimit:10;stroke-width:2px"/><path d="M319,412.22c-7.68-10.48-15.57-19.33-25.61-25.09" style="fill:none;stroke:#0d0e1f;stroke-miterlimit:10;stroke-width:2px"/><path d="M319,412.22c1.91,2.62,3.81,5.33,5.73,8.13" style="fill:none;stroke:#0d0e1f;stroke-miterlimit:10;stroke-width:2px"/><path d="M293.34,387.13l-.07,0" style="fill:none;stroke:#0d0e1f;stroke-miterlimit:10;stroke-width:2px"/><path d="M330.64,429.14h0" style="fill:none;stroke:#0d0e1f;stroke-miterlimit:10;stroke-width:2px"/><path d="M358.54,465.49c2.91,3.09,6,6.16,9.29,9.15" style="fill:none;stroke:#0d0e1f;stroke-miterlimit:10;stroke-width:2px"/><path d="M348.09,453.38c-1.56-2-3.07-3.91-4.54-5.87" style="fill:none;stroke:#0d0e1f;stroke-miterlimit:10;stroke-width:2px"/><path d="M325.88,422.1l4.76,7" style="fill:none;stroke:#0d0e1f;stroke-miterlimit:10;stroke-width:2px"/><path d="M358.54,465.49q-3.07-3.27-5.89-6.58" style="fill:none;stroke:#0d0e1f;stroke-miterlimit:10;stroke-width:2px"/><path d="M487.54,587.88a77.54,77.54,0,0,1,2.06,10.23" style="fill:none;stroke:#0d0e1f;stroke-miterlimit:10;stroke-width:2px"/><path d="M324.68,420.35l1.2,1.75" style="fill:none;stroke:#0d0e1f;stroke-miterlimit:10;stroke-width:2px"/><path d="M380.67,485.13a159,159,0,0,0,23.46,14.22c38.65,19.18,73.63,52.37,83.41,88.53" style="fill:none;stroke:#0d0e1f;stroke-miterlimit:10;stroke-width:2px"/><path d="M490.18,604.62c.72,16.78-4.49,33.83-17.67,50.08" style="fill:none;stroke:#0d0e1f;stroke-miterlimit:10;stroke-width:2px"/><line x1="318.95" y1="412.22" x2="315.6" y2="414.38" style="fill:none;stroke:#0d0e1f;stroke-miterlimit:10;stroke-width:2px"/><line x1="318.95" y1="412.22" x2="322.58" y2="409.88" style="fill:none;stroke:#0d0e1f;stroke-miterlimit:10;stroke-width:2px"/><line x1="325.88" y1="419.69" x2="328.78" y2="418.1" style="fill:none;stroke:#0d0e1f;stroke-miterlimit:10;stroke-width:2px"/><line x1="320.56" y1="422.6" x2="324.68" y2="420.35" style="fill:none;stroke:#0d0e1f;stroke-miterlimit:10;stroke-width:2px"/><line x1="324.68" y1="420.35" x2="325.88" y2="419.69" style="fill:none;stroke:#0d0e1f;stroke-miterlimit:10;stroke-width:2px"/><line x1="369.91" y1="474.64" x2="369.58" y2="476.2" style="fill:none;stroke:#0d0e1f;stroke-miterlimit:10;stroke-width:2px"/><line x1="369.58" y1="476.2" x2="368.47" y2="481.36" style="fill:none;stroke:#0d0e1f;stroke-miterlimit:10;stroke-width:2px"/><line x1="369.91" y1="474.64" x2="370.8" y2="470.51" style="fill:none;stroke:#0d0e1f;stroke-miterlimit:10;stroke-width:2px"/><line x1="358.54" y1="465.49" x2="354.36" y2="466.32" style="fill:none;stroke:#0d0e1f;stroke-miterlimit:10;stroke-width:2px"/><line x1="358.54" y1="465.49" x2="364.44" y2="464.31" style="fill:none;stroke:#0d0e1f;stroke-miterlimit:10;stroke-width:2px"/><line x1="490.18" y1="604.62" x2="495.92" y2="604.62" style="fill:none;stroke:#0d0e1f;stroke-miterlimit:10;stroke-width:2px"/><line x1="486.31" y1="604.62" x2="490.18" y2="604.62" style="fill:none;stroke:#0d0e1f;stroke-miterlimit:10;stroke-width:2px"/><line x1="495.92" y1="598.11" x2="489.6" y2="598.11" style="fill:none;stroke:#0d0e1f;stroke-miterlimit:10;stroke-width:2px"/><line x1="484.14" y1="598.11" x2="489.6" y2="598.11" style="fill:none;stroke:#0d0e1f;stroke-miterlimit:10;stroke-width:2px"/><line x1="481.96" y1="589.74" x2="487.54" y2="587.88" style="fill:none;stroke:#0d0e1f;stroke-miterlimit:10;stroke-width:2px"/><line x1="487.54" y1="587.88" x2="494.06" y2="585.71" style="fill:none;stroke:#0d0e1f;stroke-miterlimit:10;stroke-width:2px"/><path d="M289.71,589.74c0,23.88,17.83,57.21,28.68,65" style="fill:none;stroke:#0d0e1f;stroke-miterlimit:10;stroke-width:2px"/><path d="M328.16,654.7c-6.67-2.17-16-29.92-16-44.19,0,0,21.42,43.12,37.42,43.37s-21.45.82-21.45.82" style="fill:#0d0e1f;stroke:#0d0e1f;stroke-miterlimit:10;stroke-width:2px"/><path d="M468.48,634.24c-2.64,9.3-7.76,17.21-11.94,20.46" style="fill:none;stroke:#0d0e1f;stroke-miterlimit:10;stroke-width:2px"/><path d="M281.85,458.91a45.11,45.11,0,0,0,12.51,7.41" style="fill:none;stroke:#0d0e1f;stroke-miterlimit:10;stroke-width:2px"/><path d="M271.5,443l-.09-.24" style="fill:none;stroke:#0d0e1f;stroke-miterlimit:10;stroke-width:2px"/><path d="M271.5,443a35.54,35.54,0,0,0,10.35,15.92" style="fill:none;stroke:#0d0e1f;stroke-miterlimit:10;stroke-width:2px"/><path d="M271.88,452.06c0,.19,0,.38.07.57" style="fill:none;stroke:#0d0e1f;stroke-miterlimit:10;stroke-width:2px"/><path d="M271.18,458.91H217.53a5.26,5.26,0,0,0-5.24,5.25v5.24a5.26,5.26,0,0,0,5.24,5.24h5.25" style="fill:none;stroke:#0d0e1f;stroke-miterlimit:10;stroke-width:2px"/><path d="M894.24,474.64h5.24a5.26,5.26,0,0,0,5.25-5.24v-5.24a5.26,5.26,0,0,0-5.25-5.25h-425" style="fill:none;stroke:#0d0e1f;stroke-miterlimit:10;stroke-width:2px"/><line x1="422.97" y1="474.64" x2="894.24" y2="474.64" style="fill:none;stroke:#0d0e1f;stroke-miterlimit:10;stroke-width:2px"/><line x1="222.78" y1="474.64" x2="269.09" y2="474.64" style="fill:none;stroke:#0d0e1f;stroke-miterlimit:10;stroke-width:2px"/><line x1="369.91" y1="474.64" x2="367.83" y2="474.64" style="fill:none;stroke:#0d0e1f;stroke-miterlimit:10;stroke-width:2px"/><path d="M435.44,485.13H891.62a2.63,2.63,0,0,0,2.62-2.62v-7.87" style="fill:none;stroke:#0d0e1f;stroke-miterlimit:10;stroke-width:2px"/><path d="M222.78,474.64v7.87a2.63,2.63,0,0,0,2.62,2.62H268" style="fill:none;stroke:#0d0e1f;stroke-miterlimit:10;stroke-width:2px"/><path d="M466.12,453.38a5.27,5.27,0,0,0,.28-1.7V364.8a5.23,5.23,0,0,0-5.23-5.23H331.11a5.23,5.23,0,0,0-5.23,5.23v17.49" style="fill:none;stroke:#0d0e1f;stroke-miterlimit:10;stroke-width:3px"/><line x1="325.88" y1="422.1" x2="325.88" y2="419.69" style="fill:none;stroke:#0d0e1f;stroke-miterlimit:10;stroke-width:2px"/><path d="M474.47,458.91a14.7,14.7,0,0,0,7.51-2h0l.19-.14a.45.45,0,0,0,.16-.38v-2.71a.28.28,0,0,0-.28-.27H466.12" style="fill:none;stroke:#0d0e1f;stroke-miterlimit:10;stroke-width:2px"/><line x1="408.31" y1="458.91" x2="474.47" y2="458.91" style="fill:none;stroke:#0d0e1f;stroke-miterlimit:10;stroke-width:2px"/><polyline points="398.1 447.51 461.61 447.51 461.61 365.61 330.64 365.61 330.64 367.29 330.64 383.38" style="fill:none;stroke:#0d0e1f;stroke-miterlimit:10;stroke-width:2px"/><line x1="466.12" y1="453.38" x2="403.34" y2="453.38" style="fill:none;stroke:#0d0e1f;stroke-miterlimit:10;stroke-width:2px"/><path d="M774.81,457.87H764.32c-5.77,0-10.48-3.72-10.48-9.49V419.54H785.3v28.84C785.3,454.15,780.58,457.87,774.81,457.87Z" style="fill:none;stroke:#0d0e1f;stroke-miterlimit:10;stroke-width:3px"/><line x1="753.84" y1="427.41" x2="785.3" y2="427.41" style="fill:none;stroke:#0d0e1f;stroke-miterlimit:10;stroke-width:2px"/><path d="M783.2,367.5v.92a13.12,13.12,0,0,1-9.83,12.72" style="fill:none;stroke:#0d0e1f;stroke-miterlimit:10;stroke-width:2px;isolation:isolate"/><path d="M775.86,356.62a12,12,0,0,0-5.77-1.31" style="fill:none;stroke:#0d0e1f;stroke-miterlimit:10;stroke-width:2px;isolation:isolate"/><path d="M781.23,361.47c-.26-.39-.52-.65-.78-1.05" style="fill:none;stroke:#0d0e1f;stroke-miterlimit:10;stroke-width:2px;isolation:isolate"/><path d="M762.75,385.2a9,9,0,0,0-1.84,5.5A9.1,9.1,0,0,0,766,399" style="fill:none;stroke:#0d0e1f;stroke-miterlimit:10;stroke-width:2px;isolation:isolate"/><path d="M772.71,400.54a5.27,5.27,0,0,1-2.62,9.83" style="fill:none;stroke:#0d0e1f;stroke-miterlimit:10;stroke-width:2px;isolation:isolate"/><line x1="753.7" y1="433.96" x2="769.43" y2="433.96" style="fill:none;stroke:#0d0e1f;stroke-miterlimit:10;stroke-width:2px"/><line x1="753.32" y1="439.21" x2="763.81" y2="439.21" style="fill:none;stroke:#0d0e1f;stroke-miterlimit:10;stroke-width:2px"/><polygon points="109.16 654.28 61.35 654.28 53.45 613.33 115.75 613.33 109.16 654.28" style="fill:none;stroke:#0d0e1f;stroke-miterlimit:10;stroke-width:3px"/><line x1="61.81" y1="622.75" x2="60.98" y2="618.36" style="fill:none;stroke:#0d0e1f;stroke-miterlimit:10;stroke-width:2px"/><line x1="66.93" y1="649.9" x2="62.66" y2="627.28" style="fill:none;stroke:#0d0e1f;stroke-miterlimit:10;stroke-width:2px"/><rect x="50.03" y="594.66" width="69.12" height="18.67" rx="3" ry="3" style="fill:none;stroke:#0d0e1f;stroke-miterlimit:10;stroke-width:3px"/><path d="M55,594.66C50,565.39,11.5,526.35,11.5,526.35s52,28.67,65.67,68.31" style="fill:none;stroke:#0d0e1f;stroke-miterlimit:10;stroke-width:3px"/><path d="M75.47,547.66c.37-42,6.53-89.39,6.53-89.39S58.65,502.82,59.27,565l7.66,9.41" style="fill:#0d0e1f;stroke:#0d0e1f;stroke-miterlimit:10;stroke-width:2px"/><path d="M66.93,575.5c5.7-28.84,20.78-52,20.78-52s-2.35,19.43-3.86,38.66" style="fill:none;stroke:#0d0e1f;stroke-miterlimit:10;stroke-width:2px"/><path d="M98.19,558.66c10.18-21,22.68-43.07,22.68-43.07s-35.54,38.12-49.32,66.06l3.25,7.07a140.27,140.27,0,0,1,23.39-30.06" style="fill:#0d0e1f;stroke:#0d0e1f;stroke-miterlimit:10;stroke-width:2px"/><path d="M98.19,558.66c-.59,1.21-16.83,19.22-22.49,30.8l2.47,4.5,9.86-.3,6.75-8.7,11.55-6.23C122.71,551,169,510.56,169,510.54S129,527.91,98.19,558.66" style="fill:#0d0e1f;stroke:#0d0e1f;stroke-miterlimit:10;stroke-width:2px"/><path d="M87.71,594.66c28-34.15,81.26-30.53,81.26-30.53s-53.37,19.77-55.12,30.53" style="fill:none;stroke:#0d0e1f;stroke-miterlimit:10;stroke-width:2px"/><line x1="135.48" y1="654.89" x2="19.27" y2="654.89" style="fill:none;stroke:#0d0e1f;stroke-miterlimit:10;stroke-width:2px"/><line x1="159.57" y1="654.89" x2="151.01" y2="654.89" style="fill:none;stroke:#0d0e1f;stroke-miterlimit:10;stroke-width:2px"/><line x1="580.03" y1="654.89" x2="251.7" y2="654.89" style="fill:none;stroke:#0d0e1f;stroke-miterlimit:10;stroke-width:2px"/><line x1="723.36" y1="654.89" x2="710.7" y2="654.89" style="fill:none;stroke:#0d0e1f;stroke-miterlimit:10;stroke-width:2px"/><line x1="677.7" y1="654.89" x2="625.03" y2="654.89" style="fill:none;stroke:#0d0e1f;stroke-miterlimit:10;stroke-width:2px"/><line x1="901.36" y1="654.89" x2="741.36" y2="654.89" style="fill:none;stroke:#0d0e1f;stroke-miterlimit:10;stroke-width:2px"/><line x1="901.36" y1="654.89" x2="741.36" y2="654.89" style="fill:none;stroke:#0d0e1f;stroke-miterlimit:10;stroke-width:2px"/><line x1="1068.36" y1="654.89" x2="961.36" y2="654.89" style="fill:none;stroke:#0d0e1f;stroke-miterlimit:10;stroke-width:1.63554298877716px"/><line x1="785.3" y1="674.89" x2="766.43" y2="674.89" style="fill:none;stroke:#0d0e1f;stroke-miterlimit:10;stroke-width:3px"/><line x1="851.68" y1="674.89" x2="797.36" y2="674.89" style="fill:none;stroke:#0d0e1f;stroke-miterlimit:10;stroke-width:3px"/><polygon points="514.7 299.11 514.7 414.22 556.7 414.22 514.7 299.11" style="fill:#0d0e1f;stroke:#0d0e1f;stroke-miterlimit:10;stroke-width:2px"/><polygon points="669.84 296.2 703.44 295.81 703.44 333.29 669.84 296.2" style="fill:#0d0e1f;stroke:#0d0e1f;stroke-miterlimit:10;stroke-width:2px"/><path d="M774.3,566.13v63.52a20.81,20.81,0,0,0,4.2,12.55l.8,1a11,11,0,0,0,8.79,4.38h14.3l-13-23.82a64,64,0,0,1-6.43-17.3Z" style="fill:#0d0e1f;stroke:#0d0e1f;stroke-miterlimit:10;stroke-width:2px"/><polygon points="418.33 374.86 451.36 387.63 451.36 374.65 418.33 374.86" style="fill:#0d0e1f;stroke:#0d0e1f;stroke-miterlimit:10;stroke-width:2px"/><polygon points="452.2 441.21 452.2 424.38 377.16 424.38 389.91 437.92 392.26 440.56 452.2 441.21" style="fill:#0d0e1f;stroke:#0d0e1f;stroke-miterlimit:10;stroke-width:2px"/></svg>