<?xml version="1.0" encoding="utf-8"?>
<!-- Generator: Adobe Illustrator 22.0.1, SVG Export Plug-In . SVG Version: 6.00 Build 0)  -->
<svg version="1.1" id="Layer_1" xmlns="http://www.w3.org/2000/svg" xmlns:xlink="http://www.w3.org/1999/xlink" x="0px" y="0px"
	 viewBox="0 0 100 188" style="enable-background:new 0 0 100 188;" xml:space="preserve">
<style type="text/css">
	.st0{fill:#4840BB;}
</style>
<g>
	<g>
		<rect x="72.4" y="2.1" transform="matrix(0.9848 -0.1737 0.1737 0.9848 -3.2638 13.419)" class="st0" width="5.3" height="46.5"/>
	</g>
	<g>
		<rect x="57.3" y="13.5" transform="matrix(0.866 -0.5 0.5 0.866 -8.7895 34.5054)" class="st0" width="5.3" height="40.2"/>
	</g>
	<g>
		
			<rect x="40.5" y="15.6" transform="matrix(0.6428 -0.7661 0.7661 0.6428 -15.8193 47.6363)" class="st0" width="5.3" height="50.4"/>
	</g>
	<g>
		<rect x="32" y="32.8" transform="matrix(0.342 -0.9397 0.9397 0.342 -30.7332 70.0858)" class="st0" width="5.3" height="48.4"/>
	</g>
	<g>
		<rect x="20.4" y="72.3" class="st0" width="35.2" height="5.3"/>
	</g>
	<g>
		<rect x="3.3" y="85.6" class="st0" width="52.3" height="5.3"/>
	</g>
	<g>
		<rect x="9.4" y="99.5" class="st0" width="79.8" height="5.3"/>
	</g>
	<g>
		<rect x="15.4" y="112.8" class="st0" width="73.7" height="5.3"/>
	</g>
	<g>
		<rect x="11.4" y="126.2" class="st0" width="44.2" height="5.3"/>
	</g>
	<g>
		<rect x="15.4" y="139.6" class="st0" width="40.2" height="5.3"/>
	</g>
	<g>
		<rect x="2.7" y="153.3" class="st0" width="53" height="5.3"/>
	</g>
	<g>
		<rect x="2" y="166.7" class="st0" width="53.6" height="5.3"/>
	</g>
	<g>
		<rect x="15.4" y="179.8" class="st0" width="40.2" height="5.3"/>
	</g>
	<g>
		
			<rect x="71.8" y="26.2" transform="matrix(0.1738 -0.9848 0.9848 0.1738 47.4583 114.3639)" class="st0" width="40.3" height="5.3"/>
	</g>
</g>
</svg>
