<svg xmlns="http://www.w3.org/2000/svg" viewBox="0 0 160 160"><title>inkOfPixel - Services</title><path d="M47.4,53.93,49,55.56A4.62,4.62,0,0,0,55.56,49L53.93,47.4Z" style="fill:none;stroke:#8152bc;stroke-miterlimit:10;stroke-width:4px"/><line x1="70.17" y1="69.65" x2="55.56" y2="55.56" style="fill:none;stroke:#8152bc;stroke-miterlimit:10;stroke-width:4px"/><line x1="104.8" y1="104.28" x2="92.18" y2="91.67" style="fill:none;stroke:#8152bc;stroke-miterlimit:10;stroke-width:4px"/><path d="M97.3,83.71l14,14a9.23,9.23,0,1,1-13,13.09l-14-14" style="fill:none;stroke:#8152bc;stroke-miterlimit:10;stroke-width:4px"/><path d="M111.37,68.22l-4.22,4.22A13.85,13.85,0,0,1,87.56,52.85l4.22-4.22" style="fill:none;stroke:#8152bc;stroke-miterlimit:10;stroke-width:4px"/><path d="M114.63,68.22l-6.53-6.53L104.84,65a6.93,6.93,0,1,1-9.8-9.8l3.27-3.26-6.53-6.53" style="fill:none;stroke:#8152bc;stroke-miterlimit:10;stroke-width:4px"/><line x1="52.37" y1="105.32" x2="56.98" y2="105.32" style="fill:none;stroke:#8152bc;stroke-miterlimit:10;stroke-width:4px"/><line x1="84.23" y1="83.5" x2="75.07" y2="74.44" style="fill:none;stroke:#8152bc;stroke-miterlimit:10;stroke-width:4px"/><path d="M72,81.52,48.07,98.87a9.23,9.23,0,0,0,13.06,13.06L78.49,88" style="fill:none;stroke:#8152bc;stroke-miterlimit:10;stroke-width:4px"/></svg>