<svg viewBox="0 0 160 160" xmlns="http://www.w3.org/2000/svg"><path d="m113.26 80.09a35.11 35.11 0 0 0 -3-12.51c-.3-.64-.66-1.26-1-1.89a14.76 14.76 0 0 0 -1.08-1.84l-1.18-1.77c-.43-.56-.89-1.1-1.33-1.65l-.67-.82c-.24-.26-.49-.5-.74-.75l-1.48-1.5-1.62-1.36-.8-.67-.87-.59c-.58-.39-1.14-.8-1.73-1.17l-1.83-1a14 14 0 0 0 -1.87-.9c-.64-.26-1.26-.57-1.91-.8a33.1 33.1 0 0 0 -4-1.13 32.71 32.71 0 0 0 -8.1-.74 32.13 32.13 0 0 0 -7.94 1.43 30.81 30.81 0 0 0 -3.75 1.43c-.6.27-1.17.62-1.76.92a13 13 0 0 0 -1.72 1l-1.72 1c-.55.36-1.08.77-1.63 1.15l-.81.57c-.26.21-.5.44-.76.66l-1.51 1.31-1.37 1.45c-.23.24-.47.48-.69.73l-.62.79c-.4.53-.83 1-1.23 1.58l-1.08 1.7a14.25 14.25 0 0 0 -1 1.75c-.29.6-.63 1.19-.89 1.81a32.3 32.3 0 0 0 -1.36 3.79 30.19 30.19 0 0 0 -.34 16.08 31.55 31.55 0 0 0 1.21 3.91c.24.64.55 1.25.83 1.87a12.64 12.64 0 0 0 .92 1.84l1 1.78c.38.57.8 1.12 1.19 1.68l.6.85.67.78 1.36 1.56 1.5 1.42c.26.24.5.48.76.71l.82.64c.54.42 1.08.86 1.64 1.27l1.75 1.11a14.11 14.11 0 0 0 1.82 1c.62.3 1.23.65 1.86.92a32.36 32.36 0 0 0 3.94 1.4 31.11 31.11 0 0 0 16.62.34 31.91 31.91 0 0 0 4-1.24c.66-.26 1.29-.58 1.94-.86a14.7 14.7 0 0 0 1.9-1l1.84-1.07c.59-.39 1.16-.82 1.74-1.23l.87-.62c.27-.22.53-.46.8-.7l1.62-1.4 1.47-1.55c.24-.26.49-.52.73-.79l.73-.77c.43-.57.89-1.12 1.31-1.7l1.15-1.81a15 15 0 0 0 1-1.88c.31-.64.67-1.27 1-1.93a34.42 34.42 0 0 0 2.78-12.6 35 35 0 0 1 -1 8.63 34.09 34.09 0 0 1 -1.3 4.17c-.26.69-.59 1.34-.89 2a13.74 13.74 0 0 1 -1 1.95l-1.1 1.9c-.4.61-.85 1.2-1.27 1.8l-.64.9c-.23.28-.48.55-.72.83l-1.45 1.66-1.61 1.52c-.27.25-.53.51-.8.75l-.88.69c-.58.44-1.15.91-1.75 1.35l-1.83 1.2a15.48 15.48 0 0 1 -1.94 1.09c-.67.32-1.31.69-2 1a35.93 35.93 0 0 1 -4.19 1.48 33.58 33.58 0 0 1 -17.72.34 34.12 34.12 0 0 1 -4.31-1.34c-.71-.27-1.38-.61-2.07-.92a16.61 16.61 0 0 1 -2-1l-2-1.14c-.63-.42-1.23-.88-1.85-1.31l-.92-.67c-.3-.23-.57-.49-.86-.74l-1.71-1.5-1.55-1.72c-.26-.28-.53-.55-.78-.84l-.7-.89c-.46-.61-.95-1.2-1.39-1.82l-1.23-1.93a16.2 16.2 0 0 1 -1.11-2c-.34-.68-.71-1.35-1-2a37.19 37.19 0 0 1 -2.94-13.42 36.94 36.94 0 0 1 2.45-13.63c.28-.72.63-1.41.94-2.13a17.54 17.54 0 0 1 1.06-2.07l1.18-2c.43-.65.9-1.28 1.35-1.91l.68-.95c.25-.31.51-.59.77-.89l1.54-1.76 1.71-1.62c.29-.26.56-.54.86-.79l.93-.73c.62-.47 1.23-1 1.86-1.43l2-1.26a17.26 17.26 0 0 1 2.12-1c.73-.3 1.43-.65 2.17-.91a34 34 0 0 1 4.5-1.31 34.25 34.25 0 0 1 18.27.68 36 36 0 0 1 4.27 1.61c.69.31 1.35.7 2 1a16.67 16.67 0 0 1 2 1.14l1.89 1.26c.6.45 1.17.94 1.76 1.41l.88.71c.27.25.53.52.8.78l1.6 1.57 1.45 1.72c.23.29.48.57.71.86l.63.92c.42.62.86 1.22 1.25 1.85l1.08 1.94a16.68 16.68 0 0 1 1 2c.29.68.61 1.34.86 2a35.14 35.14 0 0 1 1.22 4.23 34.78 34.78 0 0 1 .74 8.7z" fill="#7589f4"/><g fill="#fe5a6d"><path d="m40.44 80.09 4.2-2.84 8.41 2.84-8.41 2.83z"/><path d="m106.95 80.09 4.21-2.84 8.4 2.84-8.4 2.83z"/><path d="m79.95 53.19-2.84-4.21 2.84-8.4 2.83 8.4z"/><path d="m79.95 119.42-2.84-4.2 2.84-8.41 2.83 8.41z"/></g><path d="m56.73 94.49 5.03-7.66.27-.41.76.03 10.3.44-2.53 1.3 1.24-3.59 6.31-11.18 1.16-2.06 1.74 1.2 9.2 6.36-1.8.37 14.13-17.17-11.93 18.77-.62.98-1.18-.62-9.92-5.19 2.9-.86-4.9 11.88-2.06 3.19-1.11 1.72-1.41-.42-9.88-2.92 1.03-.38z" fill="#ffcf58"/></svg>