<svg xmlns="http://www.w3.org/2000/svg" viewBox="0 0 160 160"><title>inkOfPixel - Services</title><path d="M93.83,139.78a5,5,0,0,0,4-2.22,4.73,4.73,0,0,0,.77-2.15,23.64,23.64,0,0,0,0-2.37l-.35-9.64-.71-19.27L96.07,65.58v-.94a2.36,2.36,0,0,0-.1-.53,2.25,2.25,0,0,0-.54-.93,2.34,2.34,0,0,0-.93-.59,2.07,2.07,0,0,0-.56-.12H92.89l-9.64-.18L64,61.91a3,3,0,0,0-2.47,1.18,2.9,2.9,0,0,0-.57,1.32,1.49,1.49,0,0,0,0,.36c0,.1,0,.37,0,.55l0,1.21-.17,9.63-.36,19.28L59.61,134a6,6,0,0,0,.2,2.16,4.38,4.38,0,0,0,1.09,1.78,4.44,4.44,0,0,0,1.79,1.1,7.15,7.15,0,0,0,2.23.23l9.64.18,19.27.35-19.27.36-9.64.17a8.06,8.06,0,0,1-2.55-.19,5.65,5.65,0,0,1-3.81-3.54,7.15,7.15,0,0,1-.37-2.6l-.7-38.54-.36-19.28L57,66.53l0-1.21c0-.22,0-.35,0-.65a5.93,5.93,0,0,1,.06-.84,7,7,0,0,1,1.21-3.11A7.17,7.17,0,0,1,64,57.66l19.27-.36,9.64-.17.6,0h.74a7.59,7.59,0,0,1,1.82.29,7.91,7.91,0,0,1,3.19,1.8,7.8,7.8,0,0,1,2,3.09,7.52,7.52,0,0,1,.42,1.82l0,.46,0,.4v.6l-1.42,38.55-.71,19.27L99.26,133a22.81,22.81,0,0,1-.15,2.44,5.3,5.3,0,0,1-1,2.28A5.17,5.17,0,0,1,93.83,139.78Z" style="fill:#7589f4"/><polygon points="99.38 72.23 86.05 73.65 59.38 72.23 86.05 70.82 99.38 72.23" style="fill:#7589f4"/><polygon points="99.38 124.23 86.05 125.65 59.38 124.23 86.05 122.82 99.38 124.23" style="fill:#7589f4"/><path d="M82.1,132.45a3.5,3.5,0,0,1-1.24,3.38,4.22,4.22,0,0,1-4.26.62,4.44,4.44,0,0,1-2-4A4.1,4.1,0,0,1,77,129.07a3.72,3.72,0,0,1,3.73.3,3.38,3.38,0,0,1,1.42,3.08A3,3,0,0,0,80.32,130a2.64,2.64,0,0,0-2.66.3,2.31,2.31,0,0,0-.89,2.16A1.94,1.94,0,0,0,78,134a2.09,2.09,0,0,0,2.14.62A2.8,2.8,0,0,0,82.1,132.45Z" style="fill:#fe5a6d"/><polygon points="84.38 67.23 80.38 68.65 72.38 67.23 80.38 65.82 84.38 67.23" style="fill:#ffcf58"/><path d="M35.15,77c-.48-3.23-1.4-7-2.09-11.27l-.26-1.64,2.35-.44,4.08-.75,7.67.71,2.31.21L49,65.73,48,77l-.11,1.17-1-.08c-4.19-.36-8.11-.84-11.75-1.09,4.19-.25,8.11-.72,11.75-1.08L45.82,77l-1-11.27,2.12,2.13-7.67.71-4.08-.76,2.08-2.08A107.21,107.21,0,0,0,35.15,77Z" style="fill:#ffcf58"/><path d="M103.29,57.52c-.47-6.36-1.39-13.25-2.08-20.67L101,35l2.25-.23,7.49-.75,14.07.71,2.23.11-.1,2-1,20.67-.06,1.14-1,0c-7.46-.36-14.64-.84-21.56-1.09,7.46-.25,14.65-.73,21.56-1.08l-1.08,1.08-1-20.67L124.85,39l-14.07.71-7.49-.75,2.08-2.09C104.69,43.22,103.77,50.11,103.29,57.52Z" style="fill:#ffcf58"/><path d="M48.26,46.14c-.47-8.12-1.39-16.76-2.08-25.92L46,18.31l2.22-.17,9.39-.76,17.65.71,2.21.09-.08,2-1,25.92,0,1.12-1,0c-9.28-.36-18.3-.84-27-1.08,9.29-.25,18.31-.73,27-1.09l-1.08,1.09-1-25.92,2.12,2.12-17.65.71-9.39-.75,2.09-2.08C49.66,28.33,48.74,37,48.26,46.14Z" style="fill:#ffcf58"/><path d="M107.48,90.29c-.48-2.67-1.39-5.87-2.08-9.59l-.29-1.56,2.37-.52,3.47-.75,6.53.71,2.33.25-.21,1.87-1,9.59-.12,1.18-1-.1c-3.61-.36-6.94-.83-10-1.08,3.61-.25,6.94-.73,10-1.09l-1.09,1.09-1-9.59,2.13,2.13-6.53.71-3.47-.76,2.08-2.08A74.69,74.69,0,0,0,107.48,90.29Z" style="fill:#ffcf58"/></svg>