<svg xmlns="http://www.w3.org/2000/svg" viewBox="0 0 400 160"><title>inkOfPixel - Project logo</title><path d="M80,64.32H91a15.91,15.91,0,1,1,0,31.81H80Zm19.61,15.9A8.46,8.46,0,0,0,91,72H87.68V88.49H91A8.46,8.46,0,0,0,99.61,80.22Z" style="fill:#24292e"/><path d="M116.74,96.13V75l-2.33,1.74-4.37-6,8.62-6.43h5.49V96.13Z" style="fill:#24292e"/><path d="M163,96.13V78.53c-2.37,3.21-4.83,6.52-6.66,9.06l-6.61-9.06v17.6H142V64.32h6.88l7.46,10.27,7.46-10.27h6.88V96.13Z" style="fill:#24292e"/><path d="M180.07,64.32h7.78V96.13h-7.78Z" style="fill:#24292e"/><path d="M196.56,64.32h7.73V88.49h15.1v7.64H196.56Z" style="fill:#24292e"/><path d="M241.79,88.89h-8.94L230,96.13h-8.22l12.24-31.81h6.52l12.29,31.81h-8.36Zm-4.47-12.24-1.52,4.64h3Z" style="fill:#24292e"/><path d="M264.05,79.11v17h-7.77V64.32h7.1l11.39,16.93V64.32h7.78V96.13h-7.06Z" style="fill:#24292e"/><path d="M320,80.05a16.55,16.55,0,1,1-16.58-16.58A16.61,16.61,0,0,1,320,80.05Zm-7.82,0a8.78,8.78,0,1,0-8.76,8.79A8.78,8.78,0,0,0,312.18,80.05Z" style="fill:#24292e"/></svg>