<svg xmlns="http://www.w3.org/2000/svg" viewBox="0 0 160 160"><title>inkOfPixel - Services</title><polygon points="38.35 71.67 40.48 113.32 38.35 111.19 52.23 110.48 121.65 112.26 120.59 113.32 121.65 71.67 122.71 113.32 122.74 114.35 121.65 114.38 52.23 116.15 38.35 115.44 36.12 115.33 36.23 113.32 38.35 71.67" style="fill:#7589f4"/><path d="M38.35,63.34c22.9-.65,45.32-1.78,67.06-2.8l16.24.32-2.48,2.48.35-16.66,2.13,2.13L38.35,47l.36-.36-.36,16.66L38,46.68v-.35h.36l83.3-1.77,2.08-.05,0,2.17.36,16.66.05,2.43-2.53,0-17.08.32C81.89,65.12,59.87,64,38.35,63.34Z" style="fill:#7589f4"/><polygon points="46.68 55.01 48.53 52.18 52.23 55.01 48.53 57.85 46.68 55.01" style="fill:#fe5a6d"/><polygon points="55.01 55.01 56.86 52.18 60.56 55.01 56.86 57.85 55.01 55.01" style="fill:#fe5a6d"/><polygon points="63.34 55.01 65.19 52.18 68.89 55.01 65.19 57.85 63.34 55.01" style="fill:#fe5a6d"/><path d="M49.46,102.21c-.31-4.31-.75-8.74-1.23-13.37s-1-9.45-1.43-14.39l-.21-2.39,2.87-.27,1.85-.18,14.81.71,2.22.11-.1,2-1.33,27.76,0,.83-.75,0c-5.76-.26-11.31-.61-16.66-.8,5.75-.18,11.31-.53,16.66-.8l-.8.8L64,74.45l2.13,2.12-14.81.71-1.85-.18,2.66-2.65L50.69,87.82C50.2,92.45,49.77,97.27,49.46,102.21Z" style="fill:#ffcf58"/><path d="M110.54,102.21c-.44-9.74-1.29-19-1.93-27.76l1.93,1.93-13,.9-20.36-.71,2.13-2.12-1,27.76-1.16-1.16c10.82.39,21.92.9,33.32,1.16-10.81.27-21.92.78-33.32,1.16l-1.11,0,0-1.2-1-27.76-.07-2,2.19-.08,20.36-.71,13,.9,2,.15-.11,1.79C111.84,84.19,111,93.45,110.54,102.21Z" style="fill:#ffcf58"/></svg>