<svg xmlns="http://www.w3.org/2000/svg" viewBox="0 0 400 160"><title>inkOfPixel - Project logo</title><path d="M137.6,71a5.88,5.88,0,0,0-.7-2.95,2.29,2.29,0,0,0-2.14-1.22,2.68,2.68,0,0,0-2.35,1.06,3.93,3.93,0,0,0-.74,2.35,3.89,3.89,0,0,0,1.2,3,11.13,11.13,0,0,0,3,1.93q1.81.81,3.9,1.65a17.86,17.86,0,0,1,3.9,2.19,10.78,10.78,0,0,1,3,3.54,11.88,11.88,0,0,1,1.21,5.71q0,6.18-3.48,9t-10,2.79a26.34,26.34,0,0,1-5.48-.51,9.8,9.8,0,0,1-4-1.79,8.05,8.05,0,0,1-2.49-3.33,13.31,13.31,0,0,1-.85-5.09V87.93h9.61v.92a5.24,5.24,0,0,0,.91,3.49,3,3,0,0,0,2.35,1,2.81,2.81,0,0,0,2.38-1.08,4.25,4.25,0,0,0,.83-2.65,4,4,0,0,0-1.15-3,10.14,10.14,0,0,0-2.88-1.89c-1.16-.52-2.42-1.06-3.77-1.6A16.41,16.41,0,0,1,126.08,81a10.17,10.17,0,0,1-2.88-3.41,11.49,11.49,0,0,1-1.15-5.52q0-5.89,3.1-9t9.4-3.09q6.51,0,9.43,2.84t2.91,9.07H137.6Z" style="fill:#24292e"/><path d="M149.83,69.31V60.76h24.79v8.55h-7.48V99.4H157.2V69.31Z" style="fill:#24292e"/><path d="M187.17,60.76V99.4h-9.94V60.76Z" style="fill:#24292e"/><path d="M256.1,60.76l4,22.89h.1l4-22.89h14.21V99.4h-9.29V70.61H269L263.74,99.4h-7.16l-5.29-28.79h-.1V99.4h-9.3V60.76Z" style="fill:#24292e"/><path d="M236.94,61.05V99.4H227.7v-24q0-3.25-1.3-4.74a4.42,4.42,0,0,0-3.52-1.5,3.11,3.11,0,0,0-2.77,1.23,6.16,6.16,0,0,0-.84,3.52V99.4H210v-24a7.08,7.08,0,0,0-1.31-4.74,4.42,4.42,0,0,0-3.51-1.5,3.11,3.11,0,0,0-2.78,1.23,6.16,6.16,0,0,0-.84,3.52V99.4h-9.23V72.89c0-3.52.73-8.1,2.17-10s3.72-2.82,6.8-2.82A10.61,10.61,0,0,1,207,61.56a8.28,8.28,0,0,1,3.45,4.37h.13a7.28,7.28,0,0,1,2.91-4.34,9.35,9.35,0,0,1,5.39-1.49,11.42,11.42,0,0,1,5.19,1.09A10.61,10.61,0,0,1,228,64.78h.13V61.05Z" style="fill:#24292e"/></svg>