<svg xmlns="http://www.w3.org/2000/svg" viewBox="0 0 160 160"><title>inkOfPixel - Services</title><path d="M87,62.08a81.81,81.81,0,0,0-13.87-8.74,50.63,50.63,0,0,0-7.51-3A26.35,26.35,0,0,0,58,49.08c-2.51,0-4.93.64-6.37,2.08a7.7,7.7,0,0,0-1.89,6,22.81,22.81,0,0,0,1.69,7.16,45.67,45.67,0,0,0,3.47,6.92,76.52,76.52,0,0,0,8.64,13.26,97.92,97.92,0,0,0,11,11.65,80,80,0,0,0,12.9,9.51,49.42,49.42,0,0,0,7.13,3.48,26.54,26.54,0,0,0,7.5,1.83,9.49,9.49,0,0,0,6.76-1.63c1.77-1.39,2.6-3.86,2.7-6.38a23.93,23.93,0,0,0-1.19-7.74,47,47,0,0,0-3.06-7.48A78.93,78.93,0,0,0,98.34,74,99.65,99.65,0,0,0,87,62.08,101.13,101.13,0,0,1,99,73.49a80.13,80.13,0,0,1,9.72,13.44,49.23,49.23,0,0,1,3.54,7.61A26.23,26.23,0,0,1,113.9,103a13.84,13.84,0,0,1-.68,4.47,9.27,9.27,0,0,1-2.59,4,10.23,10.23,0,0,1-4.2,2.22,16,16,0,0,1-4.53.49,30.07,30.07,0,0,1-8.55-1.64,54,54,0,0,1-7.85-3.36,84.39,84.39,0,0,1-14.07-9.37A102.9,102.9,0,0,1,59.22,88.05a82.46,82.46,0,0,1-10-13.86A51.49,51.49,0,0,1,46.08,66a28,28,0,0,1-1.18-9,15,15,0,0,1,1-4.76,10,10,0,0,1,3-4.12,10.64,10.64,0,0,1,4.52-2.06,15.92,15.92,0,0,1,4.6-.2,29.3,29.3,0,0,1,8.35,2.21,52.08,52.08,0,0,1,7.47,3.84A82,82,0,0,1,87,62.08Z" style="fill:#fe5a6d"/><path d="M59.3,80a135.5,135.5,0,0,0,2.33,20.44,84.11,84.11,0,0,0,6,19.38,34.22,34.22,0,0,0,5.22,8.25A14.1,14.1,0,0,0,76.31,131a7,7,0,0,0,3.69,1c2.4-.14,4.7-1.94,6.5-4.37a33.87,33.87,0,0,0,4.38-8.36,83.13,83.13,0,0,0,5.52-19.07A132.43,132.43,0,0,0,98.3,80a133.2,133.2,0,0,0-1.11-20.26,84,84,0,0,0-4.85-19.56,35,35,0,0,0-4.76-8.63C85.61,29,83,27,80,26.87a8.14,8.14,0,0,0-4.27,1.25,15.48,15.48,0,0,0-3.62,3.17,35.44,35.44,0,0,0-5.19,8.58A85.38,85.38,0,0,0,61.24,59.5,135.23,135.23,0,0,0,59.3,80a135.52,135.52,0,0,1,1.15-20.62,86.58,86.58,0,0,1,5-20.14A37.5,37.5,0,0,1,70.58,30a17,17,0,0,1,4-3.75A10.46,10.46,0,0,1,80,24.48a10.58,10.58,0,0,1,5.55,1.62,17.56,17.56,0,0,1,4.18,3.67,38.18,38.18,0,0,1,5.55,9.16,87.58,87.58,0,0,1,5.85,20.2,139.18,139.18,0,0,1,2,20.87,138,138,0,0,1-1.18,21,88.41,88.41,0,0,1-5.16,20.7,39.52,39.52,0,0,1-6,9.43A19,19,0,0,1,86.24,135,11.93,11.93,0,0,1,80,136.72a11.59,11.59,0,0,1-6-2.06,18.23,18.23,0,0,1-4.16-4,38.07,38.07,0,0,1-5.09-9.54,86.34,86.34,0,0,1-4.66-20.38A136.42,136.42,0,0,1,59.3,80Z" style="fill:#7589f4"/><path d="M80,100.7a135.5,135.5,0,0,0,20.44-2.33,84.11,84.11,0,0,0,19.38-6,34.22,34.22,0,0,0,8.25-5.22A14.1,14.1,0,0,0,131,83.69a7,7,0,0,0,1-3.69c-.14-2.4-1.94-4.7-4.37-6.5a33.87,33.87,0,0,0-8.36-4.38,83.13,83.13,0,0,0-19.07-5.52,136.21,136.21,0,0,0-40.39-.79,84,84,0,0,0-19.56,4.85,35,35,0,0,0-8.63,4.76C29,74.39,27,77,26.87,80a8.14,8.14,0,0,0,1.25,4.27,15.48,15.48,0,0,0,3.17,3.62,35.44,35.44,0,0,0,8.58,5.19A85.38,85.38,0,0,0,59.5,98.76,135.23,135.23,0,0,0,80,100.7a135.52,135.52,0,0,1-20.62-1.15,86.58,86.58,0,0,1-20.14-5A37.5,37.5,0,0,1,30,89.42a17,17,0,0,1-3.75-4A10.46,10.46,0,0,1,24.48,80a10.58,10.58,0,0,1,1.62-5.55,17.56,17.56,0,0,1,3.67-4.18,38.18,38.18,0,0,1,9.16-5.55,87.58,87.58,0,0,1,20.2-5.85A140.27,140.27,0,0,1,101,58.09a88.41,88.41,0,0,1,20.7,5.16,39.52,39.52,0,0,1,9.43,6A19,19,0,0,1,135,73.76,11.93,11.93,0,0,1,136.72,80a11.59,11.59,0,0,1-2.06,6,18.23,18.23,0,0,1-4,4.16,38.07,38.07,0,0,1-9.54,5.09,86.34,86.34,0,0,1-20.38,4.66A136.42,136.42,0,0,1,80,100.7Z" style="fill:#7589f4"/><path d="M73,62.08A99,99,0,0,0,62,74.27a78,78,0,0,0-8.53,13.8,46.08,46.08,0,0,0-2.81,7.42,22.7,22.7,0,0,0-.94,7.41c.17,2.34,1,4.36,2.42,5.34a8.23,8.23,0,0,0,5.77,1.1A25,25,0,0,0,65.05,108a48.29,48.29,0,0,0,7.15-3A79.46,79.46,0,0,0,85.48,96.1,98.77,98.77,0,0,0,97.12,85a77.63,77.63,0,0,0,9.44-13,46.09,46.09,0,0,0,3.38-7.23,24,24,0,0,0,1.57-7.62c0-2.52-.64-5.08-2.45-6.68s-4.44-2.2-7-2.13a27.48,27.48,0,0,0-7.86,1.51A51,51,0,0,0,86.65,53,81.67,81.67,0,0,0,73,62.08a82.93,82.93,0,0,1,13.29-9.79,51.23,51.23,0,0,1,7.49-3.63,29,29,0,0,1,8.19-2,15.18,15.18,0,0,1,4.34.27,9.84,9.84,0,0,1,4.09,1.94A9,9,0,0,1,113,52.64a13.82,13.82,0,0,1,.87,4.4,26.49,26.49,0,0,1-1.31,8.54,49,49,0,0,1-3.22,7.85,81.34,81.34,0,0,1-9.2,14.1A102.09,102.09,0,0,1,88.58,99.74a84.87,84.87,0,0,1-13.69,10.07,55,55,0,0,1-7.83,3.79,31.35,31.35,0,0,1-8.89,2.11,17.89,17.89,0,0,1-5-.63,11.68,11.68,0,0,1-4.76-2.62,10.59,10.59,0,0,1-2.89-4.58,14.54,14.54,0,0,1-.66-4.9,27.06,27.06,0,0,1,1.93-8.75,49.61,49.61,0,0,1,3.79-7.66A79.85,79.85,0,0,1,60.75,73.24,99.9,99.9,0,0,1,73,62.08Z" style="fill:#ffcf58"/></svg>