<svg xmlns="http://www.w3.org/2000/svg" viewBox="0 0 160 160"><title>inkOfPixel - Services</title><path d="M47.4,53.93a11.15,11.15,0,0,0,2.16,1.16,3.33,3.33,0,0,0,1.9.29,2.31,2.31,0,0,0,2.06-1.8,2,2,0,0,0,1.21-1.88,2.55,2.55,0,0,0-.36-1.38C54,49.71,53.42,49,53,48.38H54.9C52.65,50,50,51.73,47.4,53.93c1.7-2.16,3.45-4.76,5.55-7.51l.71-.93,1.24.93c.67.5,1.29.93,2,1.48a6.53,6.53,0,0,1,1.94,2.81,7,7,0,0,1,.27,3.58,7.34,7.34,0,0,1-1.66,3.39,6.61,6.61,0,0,1-6.71.44,5.49,5.49,0,0,1-2.16-2C48.05,55.26,47.71,54.47,47.4,53.93Z" style="fill:#7589f4"/><polygon points="70.17 69.65 63.33 67 55.56 55.56 67.27 62.91 70.17 69.65" style="fill:#7589f4"/><polygon points="104.8 104.28 98.59 102.08 92.18 91.67 102.6 98.07 104.8 104.28" style="fill:#7589f4"/><path d="M97.3,83.71l9.1,7.1L111,94.35c.77.61,1.49,1.14,2.31,1.82A11.75,11.75,0,0,1,115.64,99a11.82,11.82,0,0,1-.58,10.58,12.16,12.16,0,0,1-2.23,2.75,11.9,11.9,0,0,1-2.91,1.91,11.32,11.32,0,0,1-3.31.91,10.65,10.65,0,0,1-6.48-1.29,10.31,10.31,0,0,1-2.57-2c-.68-.74-1.28-1.44-1.92-2.16l-3.8-4.3-7.59-8.6,8.59,7.6,4.3,3.8c.71.62,1.44,1.28,2.14,1.87a7.66,7.66,0,0,0,6.75,1.59,7.29,7.29,0,0,0,3.8-2.33,6.75,6.75,0,0,0,.71-7.83,6.11,6.11,0,0,0-.87-1.87c-.5-.69-1.16-1.5-1.73-2.24l-3.54-4.55Z" style="fill:#7589f4"/><path d="M111.37,68.22,108.6,72a17.77,17.77,0,0,1-3.28,3.67,15.83,15.83,0,0,1-9.93,3.55A16.41,16.41,0,0,1,86.05,74a15.68,15.68,0,0,1-3.85-9.5,14.86,14.86,0,0,1,2.74-9.4,18.47,18.47,0,0,1,3.32-3.4l3.52-3-3,3.52a17,17,0,0,0-2.61,3.65A12.65,12.65,0,0,0,85,64.11a12.15,12.15,0,0,0,4,6.83,11.41,11.41,0,0,0,7,2.64,11.5,11.5,0,0,0,7.78-.33A15.9,15.9,0,0,0,107.6,71Z" style="fill:#ffcf58"/><path d="M114.63,68.22,107,62.82h2.24l-2.12,3-.53.75a8,8,0,0,1-.79.91,9.3,9.3,0,0,1-2,1.55,9.49,9.49,0,0,1-7.88-.65,9,9,0,0,1-4.4-6.06,8.49,8.49,0,0,1,1.63-6.87,8.86,8.86,0,0,1,1.2-1.24l1.14-1,2.28-1.91v1.12l-6-7.09,7.09,6,.55.46-.55.66L97,54.74l-1,1.14a6.26,6.26,0,0,0-.7,1A5.33,5.33,0,0,0,95,61.38a4.81,4.81,0,0,0,2.92,2.82,4.36,4.36,0,0,0,3.62-.38,4.17,4.17,0,0,0,1.11-.3,6.09,6.09,0,0,0,.56-.29l.75-.53,3-2.13,1.5-1.06.74,1.06Z" style="fill:#ffcf58"/><polygon points="52.37 105.33 53.91 102.49 56.98 105.33 53.91 108.16 52.37 105.33" style="fill:#ffcf58"/><polygon points="84.23 83.5 79.19 82.5 75.07 74.44 83.17 78.46 84.23 83.5" style="fill:#ffcf58"/><path d="M72,81.51,49.88,101.06l-.14.09.33-.28a6.57,6.57,0,0,0-2.23,4.53,6.91,6.91,0,0,0,1.74,5,7.3,7.3,0,0,0,5,2.44,7.66,7.66,0,0,0,5.52-1.94l-.14.17L78.49,88l-16.2,24.72,0,0-.12.13a10.85,10.85,0,0,1-7.54,3.48,11.2,11.2,0,0,1-8-3,11.61,11.61,0,0,1-3.68-8,11.92,11.92,0,0,1,3.19-8.53l.06-.07.27-.22.14-.11Z" style="fill:#ffcf58"/></svg>